<?xml version="1.0" standalone="no"?>
<!DOCTYPE svg PUBLIC "-//W3C//DTD SVG 20010904//EN"
 "http://www.w3.org/TR/2001/REC-SVG-20010904/DTD/svg10.dtd">
<svg version="1.0" xmlns="http://www.w3.org/2000/svg"
 width="2560.000000pt" height="1516.000000pt" viewBox="0 0 2560.000000 1516.000000"
 preserveAspectRatio="xMidYMid meet">

<g transform="translate(0.000000,1516.000000) scale(0.100000,-0.100000)"
fill="#000000" stroke="none">
<path d="M265 15056 c-14 -14 -39 -26 -57 -28 l-33 -3 0 -95 0 -95 91 -3 c101
-3 122 7 110 53 -5 18 -13 25 -30 25 -31 0 -43 37 -14 46 13 4 28 -2 44 -17
13 -12 27 -19 31 -15 5 4 -2 16 -14 26 -17 13 -22 27 -21 55 2 68 -61 97 -107
51z m85 -16 c22 -41 -13 -80 -59 -65 -48 15 -31 85 19 85 19 0 33 -7 40 -20z
m-110 -116 c0 -83 -1 -85 -22 -82 -21 3 -23 9 -26 86 -3 82 -3 82 23 82 25 0
25 -1 25 -86z m58 -31 c3 -51 2 -53 -22 -53 -25 0 -26 3 -26 56 0 52 1 55 23
52 19 -3 22 -10 25 -55z m57 -23 c0 -18 -6 -26 -22 -28 -20 -3 -23 1 -23 28 0
27 3 31 23 28 16 -2 22 -10 22 -28z"/>
<path d="M24330 15014 c0 -9 -9 -18 -20 -21 -17 -5 -20 -14 -20 -69 l0 -64 65
0 c53 0 65 3 65 16 0 9 9 18 20 21 17 5 20 14 20 69 l0 64 -65 0 c-53 0 -65
-3 -65 -16z m120 -55 c0 -60 -23 -65 -28 -6 -3 36 -4 37 -43 37 -21 0 -39 5
-39 10 0 6 25 10 55 10 l55 0 0 -51z m-40 -34 l0 -55 -50 0 -50 0 0 55 0 55
50 0 50 0 0 -55z"/>
<path d="M25110 15022 c0 -4 16 -23 35 -42 l35 -34 -37 -38 c-48 -49 -34 -63
15 -15 l38 37 36 -37 c21 -20 41 -34 45 -30 4 4 -10 24 -30 45 l-37 36 37 38
c48 49 34 63 -15 15 l-38 -37 -34 35 c-33 34 -50 43 -50 27z"/>
<path d="M1200 14940 c0 -56 3 -70 15 -70 12 0 15 14 15 70 0 56 -3 70 -15 70
-12 0 -15 -14 -15 -70z"/>
<path d="M1706 14998 c-8 -27 -26 -107 -26 -117 0 -17 47 -13 65 5 10 10 15
29 13 48 -2 25 -7 31 -26 30 -20 -1 -22 3 -17 23 5 23 -3 33 -9 11z m44 -66
c0 -32 -16 -52 -42 -52 -15 0 -17 5 -12 28 14 56 54 74 54 24z"/>
<path d="M2146 14998 c-8 -27 -26 -107 -26 -117 0 -17 47 -13 65 5 10 10 15
29 13 48 -2 25 -7 31 -26 30 -20 -1 -22 3 -17 23 5 23 -3 33 -9 11z m44 -66
c0 -32 -16 -52 -42 -52 -15 0 -17 5 -12 28 14 56 54 74 54 24z"/>
<path d="M2356 14999 c-14 -47 -26 -111 -21 -120 4 -5 12 -9 18 -9 9 0 9 2 0
8 -9 5 -8 22 2 67 8 32 12 61 10 64 -3 2 -6 -2 -9 -10z"/>
<path d="M2926 14999 c-14 -47 -26 -111 -21 -120 4 -5 12 -9 18 -9 9 0 9 2 0
8 -9 5 -8 22 2 67 8 32 12 61 10 64 -3 2 -6 -2 -9 -10z"/>
<path d="M530 14935 c0 -37 4 -65 10 -65 6 0 10 11 10 25 0 19 5 25 23 25 29
0 47 18 47 46 0 24 -17 34 -61 34 l-29 0 0 -65z m65 25 c0 -8 -10 -16 -22 -18
-18 -3 -23 2 -23 18 0 16 5 21 23 18 12 -2 22 -10 22 -18z"/>
<path d="M650 14934 l0 -65 36 3 c44 4 65 28 47 57 -8 13 -9 21 -1 29 18 18
-10 42 -48 42 l-34 0 0 -66z m60 31 c0 -8 -9 -15 -20 -15 -11 0 -20 7 -20 15
0 8 9 15 20 15 11 0 20 -7 20 -15z m0 -55 c0 -13 -7 -20 -20 -20 -13 0 -20 7
-20 20 0 13 7 20 20 20 13 0 20 -7 20 -20z"/>
<path d="M770 14935 c0 -37 4 -65 10 -65 6 0 10 28 10 65 0 37 -4 65 -10 65
-6 0 -10 -28 -10 -65z"/>
<path d="M880 14935 l0 -65 35 0 c19 0 35 5 35 10 0 6 -11 10 -25 10 -18 0
-25 5 -25 20 0 15 7 20 25 20 14 0 25 5 25 10 0 6 -11 10 -25 10 -16 0 -25 6
-25 15 0 9 9 15 25 15 14 0 25 5 25 10 0 6 -16 10 -35 10 l-35 0 0 -65z"/>
<path d="M1948 14993 c14 -3 22 -10 19 -18 -3 -7 -8 -34 -11 -61 -5 -47 -5
-47 10 13 12 49 20 63 37 66 12 2 0 4 -28 4 -27 0 -40 -2 -27 -4z"/>
<path d="M2628 14993 c14 -3 22 -10 19 -18 -3 -7 -8 -34 -11 -61 -5 -47 -5
-47 10 13 12 49 20 63 37 66 12 2 0 4 -28 4 -27 0 -40 -2 -27 -4z"/>
<path d="M982 14944 c9 -20 9 -30 0 -45 -15 -24 -15 -29 2 -29 8 0 17 8 21 18
6 16 7 16 19 0 7 -10 20 -18 29 -18 15 0 14 3 -1 29 -16 28 -15 31 2 50 23 26
2 29 -26 5 -16 -16 -18 -16 -24 0 -3 9 -12 16 -20 16 -11 0 -11 -5 -2 -26z"/>
<path d="M1090 14898 c0 -39 4 -68 10 -68 6 0 10 11 10 24 0 19 4 23 20 19 28
-7 50 14 50 47 0 34 -16 47 -57 47 l-33 0 0 -69z m63 40 c6 -21 -4 -48 -19
-48 -18 0 -28 24 -20 45 7 18 33 20 39 3z"/>
<path d="M1266 14954 c-9 -8 -16 -24 -16 -34 0 -22 26 -50 46 -50 46 0 73 57
42 88 -17 17 -54 15 -72 -4z m58 -19 c8 -23 -4 -45 -25 -45 -14 0 -19 7 -19
30 0 23 5 30 19 30 10 0 21 -7 25 -15z"/>
<path d="M1380 14920 c0 -27 5 -50 10 -50 6 0 10 14 10 31 0 22 5 32 20 36 11
3 20 12 20 19 0 17 -12 18 -28 2 -9 -9 -12 -9 -12 0 0 7 -4 12 -10 12 -5 0
-10 -22 -10 -50z"/>
<path d="M1462 14958 c-7 -7 -12 -24 -12 -38 0 -14 5 -31 12 -38 15 -15 54
-16 63 -2 4 6 -5 10 -19 10 -14 0 -26 5 -26 10 0 6 14 10 31 10 27 0 30 3 23
23 -11 36 -48 49 -72 25z m48 -18 c0 -5 -7 -10 -15 -10 -8 0 -15 5 -15 10 0 6
7 10 15 10 8 0 15 -4 15 -10z"/>
<path d="M1560 14920 c0 -27 5 -50 10 -50 6 0 10 14 10 31 0 22 5 32 20 36 11
3 20 12 20 19 0 17 -12 18 -28 2 -9 -9 -12 -9 -12 0 0 7 -4 12 -10 12 -5 0
-10 -22 -10 -50z"/>
<path d="M1793 14918 c10 -48 9 -52 -12 -70 -13 -10 -18 -18 -12 -18 6 0 18 8
27 18 25 30 75 122 66 122 -5 0 -17 -18 -27 -40 -20 -44 -35 -38 -35 13 0 15
-4 27 -9 27 -4 0 -4 -23 2 -52z"/>
<path d="M2034 14946 c-8 -14 -14 -35 -12 -48 2 -18 9 -23 35 -23 29 -1 32 2
41 47 l9 48 -28 0 c-19 0 -34 -8 -45 -24z m56 -5 c0 -26 -34 -66 -48 -57 -26
16 -4 76 28 76 13 0 20 -7 20 -19z"/>
<path d="M2226 14929 c-4 -22 -4 -44 -1 -50 8 -13 32 -11 41 3 4 7 3 8 -4 4
-22 -13 -29 3 -22 44 4 22 4 40 0 40 -4 0 -10 -18 -14 -41z"/>
<path d="M2297 14963 c-3 -5 -7 -28 -11 -53 -7 -49 7 -28 17 28 6 30 3 41 -6
25z"/>
<path d="M2394 14946 c-8 -14 -14 -35 -12 -48 2 -18 9 -23 35 -23 29 -1 32 2
41 47 l9 48 -28 0 c-19 0 -34 -8 -45 -24z m56 -5 c0 -26 -34 -66 -48 -57 -26
16 -4 76 28 76 13 0 20 -7 20 -19z"/>
<path d="M2495 14960 c-1 -3 -5 -25 -8 -50 l-6 -45 12 39 c7 21 21 44 31 52
17 12 17 13 -4 11 -12 -1 -23 -4 -25 -7z"/>
<path d="M2717 14952 c-34 -37 -11 -91 32 -77 22 7 35 40 29 72 -4 25 -40 28
-61 5z m51 -23 c3 -29 -20 -54 -43 -45 -18 6 -19 29 -4 57 14 27 43 20 47 -12z"/>
<path d="M2817 14952 c-34 -37 -11 -91 32 -77 22 7 35 40 29 72 -4 25 -40 28
-61 5z m51 -23 c3 -29 -20 -54 -43 -45 -18 6 -19 29 -4 57 14 27 43 20 47 -12z"/>
<path d="M2967 14963 c-13 -12 -7 -44 8 -49 23 -9 18 -32 -7 -37 -20 -5 -20
-5 2 -4 29 2 40 35 16 49 -23 13 -20 36 7 41 20 4 20 4 1 6 -11 0 -24 -2 -27
-6z"/>
<path d="M23523 14933 c26 -2 67 -2 90 0 23 2 2 3 -48 3 -49 0 -68 -1 -42 -3z"/>
<path d="M0 7365 l0 -7365 420 0 420 0 0 7365 0 7365 -420 0 -420 0 0 -7365z
m595 7045 c4 -7 -57 -10 -175 -10 -118 0 -179 3 -175 10 4 6 73 10 175 10 102
0 171 -4 175 -10z m5 -90 c0 -6 -67 -10 -180 -10 -113 0 -180 4 -180 10 0 6
67 10 180 10 113 0 180 -4 180 -10z m0 -90 c0 -6 -67 -10 -180 -10 -113 0
-180 4 -180 10 0 6 67 10 180 10 113 0 180 -4 180 -10z m-232 -537 c3 -21 9
-22 90 -25 87 -3 87 -3 90 -30 l3 -28 -116 0 -116 0 -39 -82 -39 -83 0 138 -1
138 63 -3 c55 -3 62 -5 65 -25z m262 -110 c0 -5 -14 -41 -32 -80 l-32 -73
-152 0 -153 0 32 68 c18 37 36 73 40 80 9 13 297 18 297 5z m0 -703 l0 -180
-210 0 -210 0 0 180 0 180 210 0 210 0 0 -180z m-100 -9792 c0 -58 -2 -65 -37
-100 -20 -21 -41 -38 -45 -38 -4 0 -8 45 -8 100 l0 100 45 0 45 0 0 -62z m100
-163 l0 -175 -170 0 c-93 0 -170 3 -170 7 0 7 331 343 337 343 2 0 3 -79 3
-175z m-210 68 c0 -70 -2 -79 -27 -105 -47 -49 -53 -40 -53 77 l0 105 40 0 40
0 0 -77z m-102 -65 l3 -68 -46 0 -45 0 0 63 c0 35 3 67 7 71 4 4 23 6 43 4
l35 -3 3 -67z m152 -668 l0 -50 58 0 c32 0 63 -5 70 -12 18 -18 17 -262 -2
-277 -9 -8 -50 -11 -117 -9 l-104 3 -3 52 -3 52 -67 3 -67 3 -3 129 c-1 72 0
136 2 143 4 10 35 13 121 13 l115 0 0 -50z m84 20 c13 0 26 -21 26 -41 0 -15
-22 -10 -36 9 -13 16 -13 16 -14 -3 0 -19 -1 -19 -22 2 -21 22 -21 23 -3 43
16 18 20 19 27 5 5 -8 15 -15 22 -15z m-264 -295 c0 -18 17 -20 23 -2 5 15 37
-8 37 -28 0 -18 -30 -41 -38 -29 -4 5 -16 14 -27 20 -25 14 -33 54 -11 54 9 0
16 -7 16 -15z m328 -558 c9 -10 -4 -28 -53 -77 l-65 -64 -40 39 c-31 30 -37
42 -28 52 9 11 16 9 38 -12 l26 -25 49 50 c54 54 57 56 73 37z m-218 -52 c-9
-10 -32 -15 -77 -15 -61 0 -64 -1 -61 -22 3 -22 9 -23 97 -28 63 -3 96 -9 99
-17 5 -18 -199 -18 -216 -1 -13 13 -17 80 -5 91 3 4 44 7 91 7 74 0 83 -2 72
-15z m122 -138 c23 22 30 24 43 13 14 -12 13 -16 -11 -42 l-28 -28 27 -28 c21
-22 24 -31 15 -40 -9 -9 -18 -6 -40 15 l-28 27 -28 -28 c-26 -24 -30 -25 -42
-11 -11 13 -9 20 14 44 l26 27 -25 24 c-19 18 -22 26 -13 37 9 12 16 10 37
-11 l25 -26 28 27z m-132 -12 c10 -12 2 -14 -57 -17 -62 -3 -68 -5 -71 -25 -3
-22 -1 -23 74 -23 68 0 75 -2 64 -15 -10 -12 -30 -15 -89 -13 l-76 3 -3 38
c-2 21 2 45 9 53 16 20 132 19 149 -1z m124 -649 c41 -24 78 -76 90 -128 11
-47 -13 -117 -54 -158 -116 -116 -310 -35 -310 131 0 67 30 122 86 155 54 33
132 33 188 0z"/>
<path d="M240 12850 l0 -130 180 0 180 0 0 130 0 130 -180 0 -180 0 0 -130z
m218 47 c3 -20 -4 -35 -23 -53 -44 -41 -63 -25 -25 23 24 31 19 42 -15 35 -14
-2 -25 0 -25 5 0 18 14 24 50 21 30 -3 35 -7 38 -31z m-40 -104 c-4 -22 -22
-20 -26 1 -2 10 3 16 13 16 10 0 15 -7 13 -17z"/>
<path d="M515 2870 l-29 -30 32 0 c29 0 32 3 32 30 0 17 -1 30 -3 30 -2 0 -16
-13 -32 -30z"/>
<path d="M260 2165 l0 -115 55 0 54 0 3 78 3 77 33 3 c29 3 32 6 32 38 l0 34
-90 0 -90 0 0 -115z m160 80 c0 -12 -14 -15 -65 -15 -51 0 -65 3 -65 15 0 12
14 15 65 15 51 0 65 -3 65 -15z m-80 -55 c0 -5 -11 -10 -25 -10 -14 0 -25 5
-25 10 0 6 11 10 25 10 14 0 25 -4 25 -10z m0 -50 c0 -5 -11 -10 -25 -10 -14
0 -25 5 -25 10 0 6 11 10 25 10 14 0 25 -4 25 -10z m0 -50 c0 -5 -11 -10 -25
-10 -14 0 -25 5 -25 10 0 6 11 10 25 10 14 0 25 -4 25 -10z"/>
<path d="M400 2060 l0 -121 88 3 87 3 0 115 0 115 -87 3 -88 3 0 -121z m150
75 c0 -12 -14 -15 -65 -15 -51 0 -65 3 -65 15 0 12 14 15 65 15 51 0 65 -3 65
-15z m0 -45 c0 -6 -28 -10 -65 -10 -37 0 -65 4 -65 10 0 6 28 10 65 10 37 0
65 -4 65 -10z m0 -55 c0 -12 -14 -15 -65 -15 -51 0 -65 3 -65 15 0 12 14 15
65 15 51 0 65 -3 65 -15z m0 -55 c0 -6 -28 -10 -65 -10 -37 0 -65 4 -65 10 0
6 28 10 65 10 37 0 65 -4 65 -10z"/>
<path d="M376 504 c-18 -18 -21 -44 -5 -44 6 0 19 10 29 23 18 21 19 21 37 4
17 -18 17 -19 -2 -35 -12 -9 -24 -25 -28 -34 -10 -28 21 -22 48 10 27 30 32
61 13 80 -17 17 -74 15 -92 -4z"/>
<path d="M400 340 c0 -13 7 -20 20 -20 13 0 20 7 20 20 0 13 -7 20 -20 20 -13
0 -20 -7 -20 -20z"/>
<path d="M11720 10280 l0 -140 25 0 25 0 0 140 0 140 -25 0 -25 0 0 -140z"/>
<path d="M14670 10280 l0 -140 25 0 25 0 0 140 0 140 -25 0 -25 0 0 -140z"/>
<path d="M11140 10393 c0 -5 14 -63 31 -130 l32 -123 32 0 c32 0 32 0 56 90
12 49 24 88 26 86 2 -2 14 -41 27 -87 21 -80 24 -84 53 -87 l30 -3 32 119 c17
65 31 124 31 130 0 7 -11 12 -24 12 -25 0 -28 -8 -51 -133 -11 -55 -20 -53
-34 7 -27 120 -30 126 -60 126 -28 0 -30 -4 -51 -82 -12 -46 -25 -89 -29 -96
-4 -7 -15 30 -25 83 -18 94 -18 95 -47 95 -16 0 -29 -3 -29 -7z"/>
<path d="M13350 10270 l0 -130 30 0 c29 0 30 2 30 45 0 43 1 45 30 45 37 0 85
23 94 45 8 21 8 59 0 80 -11 27 -60 45 -124 45 l-60 0 0 -130z m111 80 c21
-12 25 -50 7 -68 -7 -7 -22 -12 -35 -12 -21 0 -23 5 -23 45 0 48 11 56 51 35z"/>
<path d="M13580 10271 l0 -131 63 0 c72 0 107 15 125 52 16 33 2 74 -29 83
-22 7 -22 7 -2 24 30 24 34 47 14 73 -16 19 -30 23 -95 26 l-76 4 0 -131z
m120 74 c17 -20 -3 -45 -36 -45 -20 0 -24 5 -24 30 0 25 4 30 24 30 13 0 29
-7 36 -15z m4 -101 c9 -8 16 -19 16 -24 0 -17 -32 -40 -56 -40 -21 0 -24 4
-24 40 0 36 3 40 24 40 14 0 32 -7 40 -16z"/>
<path d="M13820 10270 l0 -130 30 0 30 0 0 130 0 130 -30 0 -30 0 0 -130z"/>
<path d="M14040 10270 l0 -130 81 0 c78 0 80 1 77 23 -3 19 -10 22 -50 25 -43
3 -48 5 -48 28 0 21 4 24 40 24 36 0 40 3 40 25 0 23 -4 25 -40 25 -38 0 -40
2 -40 30 0 29 2 30 45 30 41 0 45 2 45 25 0 24 -2 25 -75 25 l-75 0 0 -130z"/>
<path d="M12913 10379 c-14 -5 -23 -17 -23 -29 0 -11 -7 -20 -15 -20 -8 0 -15
-9 -15 -20 0 -11 7 -20 15 -20 12 0 15 -13 15 -59 0 -68 17 -94 59 -89 32 4
40 33 11 41 -17 4 -20 13 -20 56 0 44 3 51 20 51 13 0 20 7 20 20 0 13 -7 20
-19 20 -14 0 -21 8 -23 29 -3 25 -6 27 -25 20z"/>
<path d="M11555 10319 c-33 -19 -45 -41 -45 -84 0 -50 21 -81 60 -90 44 -10
90 3 90 25 0 15 -6 17 -38 13 -27 -4 -42 -1 -51 11 -21 25 -4 36 55 36 50 0
54 2 54 24 0 53 -76 93 -125 65z m73 -46 c2 -9 -8 -13 -32 -13 -34 0 -44 8
-29 24 11 11 56 2 61 -11z"/>
<path d="M11880 10323 c-36 -13 -60 -47 -60 -84 0 -51 8 -67 41 -84 50 -26
109 -17 109 17 0 17 -5 19 -31 13 -60 -13 -95 57 -45 90 15 10 33 14 50 9 22
-5 26 -3 26 14 0 28 -46 41 -90 25z"/>
<path d="M12044 10316 c-35 -16 -44 -32 -44 -82 0 -47 13 -69 50 -84 66 -27
140 15 140 81 0 51 -8 67 -41 84 -34 18 -64 18 -105 1z m77 -36 c36 -20 16
-100 -26 -100 -21 0 -45 29 -45 55 0 24 23 55 41 55 6 0 19 -5 30 -10z"/>
<path d="M12240 10235 c0 -94 0 -95 25 -95 23 0 24 3 27 66 2 52 7 69 21 78
28 17 47 -17 47 -86 0 -55 1 -58 25 -58 24 0 25 2 25 64 0 67 15 94 45 82 11
-4 15 -22 15 -76 l0 -70 31 0 31 0 -4 81 c-3 66 -7 83 -23 95 -25 18 -54 18
-75 -1 -16 -14 -20 -14 -49 2 -29 17 -33 17 -61 1 -25 -14 -30 -15 -30 -3 0 9
-10 15 -25 15 -25 0 -25 0 -25 -95z"/>
<path d="M12615 10319 c-33 -19 -45 -41 -45 -84 0 -50 21 -81 60 -90 44 -10
90 3 90 25 0 15 -6 17 -38 13 -27 -4 -42 -1 -51 11 -21 25 -4 36 55 36 50 0
54 2 54 24 0 53 -76 93 -125 65z m73 -46 c2 -9 -8 -13 -32 -13 -34 0 -44 8
-29 24 11 11 56 2 61 -11z"/>
<path d="M13054 10316 c-35 -16 -44 -32 -44 -82 0 -47 13 -69 50 -84 66 -27
140 15 140 81 0 51 -8 67 -41 84 -34 18 -64 18 -105 1z m77 -36 c36 -20 16
-100 -26 -100 -21 0 -45 29 -45 55 0 24 23 55 41 55 6 0 19 -5 30 -10z"/>
<path d="M14246 10281 l28 -49 -27 -41 c-15 -22 -27 -43 -27 -46 0 -3 13 -5
29 -5 22 0 31 6 41 30 7 17 16 30 20 30 4 0 13 -13 20 -30 10 -25 18 -30 46
-30 l33 0 -30 49 -31 49 31 46 32 46 -30 0 c-25 0 -34 -7 -49 -35 l-18 -36
-17 36 c-14 29 -22 35 -47 35 l-31 0 27 -49z"/>
<path d="M14440 10190 l0 -140 25 0 c24 0 25 3 25 55 0 52 1 55 19 45 32 -16
60 -12 86 15 20 19 25 34 25 74 0 54 -15 77 -56 87 -15 4 -34 0 -49 -10 -22
-14 -25 -15 -25 -1 0 9 -9 15 -25 15 l-25 0 0 -140z m118 88 c27 -27 4 -98
-32 -98 -35 0 -49 65 -20 94 19 19 36 20 52 4z"/>
<path d="M14814 10316 c-35 -16 -44 -32 -44 -82 0 -47 13 -69 50 -84 66 -27
140 15 140 81 0 51 -8 67 -41 84 -34 18 -64 18 -105 1z m77 -36 c36 -20 16
-100 -26 -100 -21 0 -45 29 -45 55 0 24 23 55 41 55 6 0 19 -5 30 -10z"/>
<path d="M15010 10235 c0 -95 0 -95 25 -95 23 0 25 3 25 51 0 63 13 89 45 89
20 0 25 5 25 25 0 32 -33 34 -54 3 l-16 -22 0 22 c0 17 -6 22 -25 22 -25 0
-25 0 -25 -95z"/>
<path d="M15195 10319 c-33 -19 -45 -41 -45 -84 0 -50 21 -81 60 -90 44 -10
90 3 90 25 0 15 -6 17 -38 13 -27 -4 -42 -1 -51 11 -21 25 -4 36 55 36 50 0
54 2 54 24 0 53 -76 93 -125 65z m73 -46 c2 -9 -8 -13 -32 -13 -34 0 -44 8
-29 24 11 11 56 2 61 -11z"/>
<path d="M15360 10235 c0 -95 0 -95 25 -95 23 0 25 3 25 51 0 63 13 89 45 89
20 0 25 5 25 25 0 32 -33 34 -54 3 l-16 -22 0 22 c0 17 -6 22 -25 22 -25 0
-25 0 -25 -95z"/>
<path d="M10453 9535 c0 -44 2 -61 4 -37 2 23 2 59 0 80 -2 20 -4 1 -4 -43z"/>
<path d="M11023 9535 c0 -44 2 -61 4 -37 2 23 2 59 0 80 -2 20 -4 1 -4 -43z"/>
<path d="M11213 9535 c0 -44 2 -70 4 -57 5 27 19 28 35 2 7 -11 17 -20 22 -20
5 0 -1 11 -14 25 l-23 25 23 25 c13 14 18 25 12 25 -7 0 -17 -9 -24 -20 -19
-31 -27 -24 -31 28 -2 27 -4 13 -4 -33z"/>
<path d="M11872 9598 c-13 -16 -15 -30 -13 -90 1 -60 21 -64 21 -4 0 26 5 46
13 49 10 4 10 6 0 6 -7 1 -13 10 -13 20 0 11 6 22 13 24 7 4 8 6 1 6 -6 1 -16
-5 -22 -11z"/>
<path d="M12043 9535 c0 -44 2 -63 4 -43 8 70 53 76 53 7 0 -21 5 -39 10 -39
15 0 12 64 -4 86 -13 16 -18 17 -35 7 -18 -11 -20 -10 -24 25 -2 20 -4 1 -4
-43z"/>
<path d="M12853 9535 c0 -44 2 -70 4 -57 5 27 19 28 35 2 7 -11 17 -20 22 -20
5 0 -1 11 -14 25 l-23 25 23 25 c13 14 18 25 12 25 -7 0 -17 -9 -24 -20 -19
-31 -27 -24 -31 28 -2 27 -4 13 -4 -33z"/>
<path d="M14373 9535 c0 -44 2 -63 4 -43 8 70 53 76 53 7 0 -21 5 -39 10 -39
15 0 12 64 -4 86 -13 16 -18 17 -35 7 -18 -11 -20 -10 -24 25 -2 20 -4 1 -4
-43z"/>
<path d="M15523 9535 c0 -44 2 -63 4 -43 8 70 53 76 53 7 0 -21 5 -39 10 -39
15 0 12 64 -4 86 -13 16 -18 17 -35 7 -18 -11 -20 -10 -24 25 -2 20 -4 1 -4
-43z"/>
<path d="M15783 9535 c0 -44 2 -61 4 -37 2 23 2 59 0 80 -2 20 -4 1 -4 -43z"/>
<path d="M15942 9598 c-13 -16 -15 -30 -13 -90 1 -60 21 -64 21 -4 0 26 5 46
13 49 10 4 10 6 0 6 -7 1 -13 10 -13 20 0 11 6 22 13 24 7 4 8 6 1 6 -6 1 -16
-5 -22 -11z"/>
<path d="M10342 9528 c0 -40 3 -59 5 -41 3 25 9 32 30 35 59 7 55 70 -6 76
l-31 3 2 -73z m57 48 c17 -20 3 -46 -25 -46 -20 0 -24 5 -24 30 0 23 5 30 19
30 10 0 24 -6 30 -14z"/>
<path d="M11975 9580 c-11 -18 -7 -91 7 -107 6 -7 16 -13 22 -12 7 0 6 2 -1 6
-8 2 -13 22 -13 44 0 24 5 39 13 39 8 0 9 3 1 8 -6 4 -13 14 -16 22 -4 12 -6
12 -13 0z"/>
<path d="M13245 9580 c-11 -18 -7 -91 7 -107 6 -7 16 -13 22 -12 7 0 6 2 -1 6
-8 2 -13 22 -13 44 0 24 5 39 13 39 8 0 9 3 1 8 -6 4 -13 14 -16 22 -4 12 -6
12 -13 0z"/>
<path d="M14305 9580 c-11 -18 -7 -91 7 -107 6 -7 16 -13 22 -12 7 0 6 2 -1 6
-8 2 -13 22 -13 44 0 24 5 39 13 39 8 0 9 3 1 8 -6 4 -13 14 -16 22 -4 12 -6
12 -13 0z"/>
<path d="M15455 9580 c-11 -18 -7 -91 7 -107 6 -7 16 -13 22 -12 7 0 6 2 -1 6
-8 2 -13 22 -13 44 0 24 5 39 13 39 8 0 9 3 1 8 -6 4 -13 14 -16 22 -4 12 -6
12 -13 0z"/>
<path d="M15995 9580 c-11 -18 -7 -91 7 -107 6 -7 16 -13 22 -12 7 0 6 2 -1 6
-8 2 -13 22 -13 44 0 24 5 39 13 39 8 0 9 3 1 8 -6 4 -13 14 -16 22 -4 12 -6
12 -13 0z"/>
<path d="M10506 9544 c-32 -31 -11 -85 32 -83 23 2 24 2 4 6 -12 2 -27 13 -32
24 -10 17 -7 19 25 19 36 0 46 15 23 38 -16 16 -33 15 -52 -4z m52 -11 c2 -8
-6 -13 -22 -13 -25 0 -33 10 -19 24 10 10 36 3 41 -11z"/>
<path d="M10604 9549 c-4 -7 0 -9 14 -5 24 8 41 -12 21 -25 -11 -7 -11 -9 -1
-9 8 0 12 -9 10 -22 -2 -11 3 -23 10 -25 15 -6 17 50 2 78 -12 21 -45 26 -56
8z"/>
<path d="M10699 9544 c-11 -14 -10 -18 5 -30 10 -7 23 -15 29 -17 19 -6 -5
-29 -26 -23 -14 3 -17 2 -9 -6 13 -13 52 -1 52 17 0 8 -9 19 -20 25 -27 14
-27 44 0 37 11 -3 18 -1 14 4 -8 14 -30 11 -45 -7z"/>
<path d="M10786 9544 c-32 -31 -11 -85 32 -83 23 2 24 2 4 6 -12 2 -27 13 -32
24 -10 17 -7 19 25 19 36 0 46 15 23 38 -16 16 -33 15 -52 -4z m52 -11 c2 -8
-6 -13 -22 -13 -25 0 -33 10 -19 24 10 10 36 3 41 -11z"/>
<path d="M10936 9544 c-32 -31 -8 -85 37 -83 22 2 22 2 -1 6 -12 2 -27 13 -32
24 -14 25 2 56 32 62 23 4 23 4 1 6 -12 0 -29 -6 -37 -15z"/>
<path d="M11073 9510 c0 -30 2 -43 4 -27 2 15 2 39 0 55 -2 15 -4 2 -4 -28z"/>
<path d="M11126 9544 c-32 -31 -8 -85 37 -83 22 2 22 2 -1 6 -30 6 -46 37 -32
62 5 11 20 22 32 24 23 4 23 4 1 6 -12 0 -29 -6 -37 -15z"/>
<path d="M11366 9544 c-31 -30 -9 -84 34 -84 24 0 50 26 50 50 0 24 -26 50
-50 50 -10 0 -26 -7 -34 -16z m64 -14 c15 -28 -4 -62 -33 -58 -22 3 -34 35
-23 64 8 21 44 17 56 -6z"/>
<path d="M11482 9510 c1 -39 2 -44 5 -18 8 70 53 76 53 7 0 -21 5 -39 10 -39
15 0 12 64 -4 86 -12 16 -18 17 -35 7 -15 -10 -21 -10 -24 0 -3 7 -5 -13 -5
-43z"/>
<path d="M11596 9544 c-32 -31 -11 -85 32 -83 23 2 24 2 4 6 -12 2 -27 13 -32
24 -10 17 -7 19 25 19 36 0 46 15 23 38 -16 16 -33 15 -52 -4z m52 -11 c2 -8
-6 -13 -22 -13 -25 0 -33 10 -19 24 10 10 36 3 41 -11z"/>
<path d="M11746 9544 c-31 -30 -9 -84 34 -84 24 0 50 26 50 50 0 24 -26 50
-50 50 -10 0 -26 -7 -34 -16z m64 -14 c15 -28 -4 -62 -33 -58 -22 3 -34 35
-23 64 8 21 44 17 56 -6z"/>
<path d="M12156 9544 c-32 -31 -11 -85 32 -83 23 2 24 2 4 6 -12 2 -27 13 -32
24 -10 17 -7 19 25 19 36 0 46 15 23 38 -16 16 -33 15 -52 -4z m52 -11 c2 -8
-6 -13 -22 -13 -25 0 -33 10 -19 24 10 10 36 3 41 -11z"/>
<path d="M12249 9544 c-11 -14 -10 -18 5 -30 10 -7 23 -15 29 -17 19 -6 -5
-29 -26 -23 -14 3 -17 2 -9 -6 13 -13 52 -1 52 17 0 8 -9 19 -20 25 -27 14
-27 44 0 37 11 -3 18 -1 14 4 -8 14 -30 11 -45 -7z"/>
<path d="M12336 9544 c-32 -31 -11 -85 32 -83 23 2 24 2 4 6 -12 2 -27 13 -32
24 -10 17 -7 19 25 19 36 0 46 15 23 38 -16 16 -33 15 -52 -4z m52 -11 c2 -8
-6 -13 -22 -13 -25 0 -33 10 -19 24 10 10 36 3 41 -11z"/>
<path d="M12485 9544 c-19 -20 -19 -48 1 -68 19 -19 40 -21 50 -4 6 9 10 5 15
-12 5 -17 7 -6 8 35 1 60 1 60 -29 62 -16 1 -36 -5 -45 -13z m59 -16 c14 -23
-3 -53 -30 -53 -20 0 -31 33 -20 61 7 19 35 14 50 -8z"/>
<path d="M12604 9515 c1 -42 4 -50 21 -53 18 -4 19 -3 3 10 -9 7 -19 31 -21
53 -3 32 -4 30 -3 -10z"/>
<path d="M12658 9514 c-2 -25 0 -48 4 -50 5 -3 8 18 8 45 0 64 -7 66 -12 5z"/>
<path d="M12713 9510 c0 -30 2 -43 4 -27 2 15 2 39 0 55 -2 15 -4 2 -4 -28z"/>
<path d="M12766 9544 c-32 -31 -8 -85 37 -83 22 2 22 2 -1 6 -12 2 -27 13 -32
24 -14 25 2 56 32 62 23 4 23 4 1 6 -12 0 -29 -6 -37 -15z"/>
<path d="M13006 9544 c-31 -30 -9 -84 34 -84 24 0 50 26 50 50 0 24 -26 50
-50 50 -10 0 -26 -7 -34 -16z m64 -14 c15 -28 -4 -62 -33 -58 -22 3 -34 35
-23 64 8 21 44 17 56 -6z"/>
<path d="M13122 9500 c0 -36 2 -57 5 -47 3 12 11 15 27 11 30 -7 58 21 54 54
-4 34 -32 51 -57 35 -15 -10 -21 -10 -24 0 -3 7 -5 -17 -5 -53z m68 30 c20
-38 -19 -77 -48 -48 -23 23 -7 68 25 68 7 0 17 -9 23 -20z"/>
<path d="M13313 9510 c0 -30 2 -43 4 -27 2 15 2 39 0 55 -2 15 -4 2 -4 -28z"/>
<path d="M13366 9544 c-31 -30 -9 -84 34 -84 24 0 50 26 50 50 0 24 -26 50
-50 50 -10 0 -26 -7 -34 -16z m64 -14 c15 -28 -4 -62 -33 -58 -22 3 -34 35
-23 64 8 21 44 17 56 -6z"/>
<path d="M13482 9510 c1 -39 2 -44 5 -18 8 70 53 76 53 7 0 -21 5 -39 10 -39
15 0 12 64 -4 86 -12 16 -18 17 -35 7 -15 -10 -21 -10 -24 0 -3 7 -5 -13 -5
-43z"/>
<path d="M13589 9544 c-11 -14 -10 -18 5 -30 10 -7 23 -15 29 -17 19 -6 -5
-29 -26 -23 -14 3 -17 2 -9 -6 13 -13 52 -1 52 17 0 8 -9 19 -20 25 -27 14
-27 44 0 37 11 -3 18 -1 14 4 -8 14 -30 11 -45 -7z"/>
<path d="M13726 9544 c-31 -30 -9 -84 34 -84 24 0 50 26 50 50 0 24 -26 50
-50 50 -10 0 -26 -7 -34 -16z m64 -14 c15 -28 -4 -62 -33 -58 -22 3 -34 35
-23 64 8 21 44 17 56 -6z"/>
<path d="M13841 9510 l2 -55 7 45 c4 25 4 49 -1 55 -5 5 -8 -13 -8 -45z"/>
<path d="M13964 9515 c1 -42 4 -50 21 -53 18 -4 19 -3 3 10 -9 7 -19 31 -21
53 -3 32 -4 30 -3 -10z"/>
<path d="M14018 9514 c-2 -25 0 -48 4 -50 5 -3 8 18 8 45 0 64 -7 66 -12 5z"/>
<path d="M14069 9544 c-11 -14 -10 -18 5 -30 10 -7 23 -15 29 -17 19 -6 -5
-29 -26 -23 -14 3 -17 2 -9 -6 13 -13 52 -1 52 17 0 8 -9 19 -20 25 -27 14
-27 44 0 37 11 -3 18 -1 14 4 -8 14 -30 11 -45 -7z"/>
<path d="M14156 9544 c-32 -31 -11 -85 32 -83 23 2 24 2 4 6 -12 2 -27 13 -32
24 -10 17 -7 19 25 19 36 0 46 15 23 38 -16 16 -33 15 -52 -4z m52 -11 c2 -8
-6 -13 -22 -13 -25 0 -33 10 -19 24 10 10 36 3 41 -11z"/>
<path d="M14486 9544 c-32 -31 -11 -85 32 -83 23 2 24 2 4 6 -12 2 -27 13 -32
24 -10 17 -7 19 25 19 36 0 46 15 23 38 -16 16 -33 15 -52 -4z m52 -11 c2 -8
-6 -13 -22 -13 -25 0 -33 10 -19 24 10 10 36 3 41 -11z"/>
<path d="M14630 9510 c0 -29 2 -51 4 -49 8 8 10 88 3 95 -4 4 -7 -17 -7 -46z"/>
<path d="M14673 9549 c11 -7 18 -24 19 -52 l1 -42 4 37 c4 39 28 67 43 52 5
-5 10 -27 13 -49 4 -39 4 -39 5 8 2 50 -15 70 -41 49 -8 -7 -18 -7 -27 -2 -8
6 -19 10 -25 10 -5 -1 -2 -5 8 -11z"/>
<path d="M14806 9544 c-32 -31 -11 -85 32 -83 23 2 24 2 4 6 -12 2 -27 13 -32
24 -10 17 -7 19 25 19 36 0 46 15 23 38 -16 16 -33 15 -52 -4z m52 -11 c2 -8
-6 -13 -22 -13 -25 0 -33 10 -19 24 10 10 36 3 41 -11z"/>
<path d="M14902 9510 c1 -39 2 -44 5 -18 8 70 53 76 53 7 0 -21 5 -39 10 -39
15 0 12 64 -4 86 -12 16 -18 17 -35 7 -15 -10 -21 -10 -24 0 -3 7 -5 -13 -5
-43z"/>
<path d="M15014 9515 c1 -42 4 -50 21 -53 18 -4 19 -3 3 10 -9 7 -19 31 -21
53 -3 32 -4 30 -3 -10z"/>
<path d="M15068 9514 c-2 -25 0 -48 4 -50 5 -3 8 18 8 45 0 64 -7 66 -12 5z"/>
<path d="M15176 9544 c-31 -30 -9 -84 34 -84 24 0 50 26 50 50 0 24 -26 50
-50 50 -10 0 -26 -7 -34 -16z m64 -14 c15 -28 -4 -62 -33 -58 -22 3 -34 35
-23 64 8 21 44 17 56 -6z"/>
<path d="M15292 9510 c1 -39 2 -44 5 -18 8 70 53 76 53 7 0 -21 5 -39 10 -39
15 0 12 64 -4 86 -12 16 -18 17 -35 7 -15 -10 -21 -10 -24 0 -3 7 -5 -13 -5
-43z"/>
<path d="M15636 9544 c-32 -31 -11 -85 32 -83 23 2 24 2 4 6 -12 2 -27 13 -32
24 -10 17 -7 19 25 19 36 0 46 15 23 38 -16 16 -33 15 -52 -4z m52 -11 c2 -8
-6 -13 -22 -13 -25 0 -33 10 -19 24 10 10 36 3 41 -11z"/>
<path d="M15836 9544 c-32 -31 -11 -85 32 -83 23 2 24 2 4 6 -12 2 -27 13 -32
24 -10 17 -7 19 25 19 36 0 46 15 23 38 -16 16 -33 15 -52 -4z m52 -11 c2 -8
-6 -13 -22 -13 -25 0 -33 10 -19 24 10 10 36 3 41 -11z"/>
<path d="M10594 9495 c-8 -19 3 -35 24 -35 15 1 15 2 -1 11 -14 8 -16 14 -6
25 8 10 9 14 0 14 -6 0 -14 -7 -17 -15z"/>
<path d="M7227 7923 c-9 -8 -9 -228 0 -236 3 -4 26 14 50 39 l43 46 0 79 0 79
-43 0 c-24 0 -47 -3 -50 -7z"/>
<path d="M10955 7907 c-3 -7 -4 -91 -3 -187 l3 -175 85 -5 85 -5 5 -70 5 -70
145 0 145 0 3 188 2 187 -79 0 c-52 0 -82 4 -89 13 -6 7 -12 40 -14 72 l-3 60
-143 3 c-110 2 -144 0 -147 -11z m270 -72 l0 -60 -47 -3 -47 -3 -3 -102 -3
-102 -77 -3 -78 -3 0 165 c0 122 3 166 13 170 6 2 64 4 127 3 l115 -2 0 -60z
m185 -250 l0 -165 -130 0 -130 0 0 165 0 165 130 0 130 0 0 -165z"/>
<path d="M11197 7703 c-18 -18 0 -23 78 -23 69 0 85 3 85 15 0 12 -15 15 -78
15 -43 0 -82 -3 -85 -7z"/>
<path d="M11192 7548 c3 -9 29 -13 86 -13 111 0 107 19 -4 23 -67 2 -85 0 -82
-10z"/>
<path d="M11310 7886 c-11 -15 -11 -19 3 -34 11 -10 17 -12 17 -4 0 7 9 12 20
12 13 0 20 -7 20 -20 0 -11 7 -20 15 -20 8 0 15 4 15 10 0 17 -34 50 -51 50
-10 0 -19 5 -21 11 -2 7 -9 5 -18 -5z"/>
<path d="M15305 7840 c-33 -33 -67 -60 -76 -60 -10 0 -26 11 -37 25 -11 14
-25 25 -31 25 -22 0 -10 -27 29 -65 l40 -39 80 79 c44 44 80 83 80 87 0 21
-31 2 -85 -52z"/>
<path d="M18850 7860 l0 -40 260 0 260 0 0 40 0 40 -260 0 -260 0 0 -40z"/>
<path d="M14891 7836 c-7 -8 -11 -36 -9 -63 l3 -48 133 -3 c90 -2 131 1 127 8
-4 6 -53 10 -121 10 l-114 0 0 40 0 39 82 3 c54 2 83 7 86 16 6 19 -171 17
-187 -2z"/>
<path d="M7090 7681 l0 -135 45 44 45 44 0 88 c0 48 -3 88 -7 89 -5 0 -25 2
-45 3 l-38 2 0 -135z"/>
<path d="M18858 7804 c-5 -4 -8 -85 -8 -181 l0 -173 260 0 260 0 0 174 c0 106
-4 177 -10 181 -7 4 -10 -55 -10 -169 l0 -176 -235 0 c-129 0 -236 1 -237 3
-1 1 -4 80 -7 175 -3 96 -9 170 -13 166z"/>
<path d="M19075 7719 c-4 -5 5 -9 20 -9 37 0 42 -26 11 -59 -28 -29 -32 -41
-16 -41 15 0 70 58 70 74 0 8 -6 18 -13 24 -18 15 -66 22 -72 11z"/>
<path d="M6940 7630 l0 -80 50 0 50 0 0 80 0 80 -50 0 -50 0 0 -80z"/>
<path d="M15144 7646 c-3 -8 6 -28 20 -43 32 -35 32 -44 1 -73 -14 -13 -25
-29 -25 -36 0 -27 23 -25 54 5 18 17 35 31 39 31 4 0 20 -14 36 -32 16 -18 33
-28 39 -24 19 11 14 31 -13 56 -14 13 -25 29 -25 35 0 6 11 22 25 35 14 13 25
29 25 36 0 28 -23 25 -56 -7 l-34 -33 -33 32 c-37 36 -45 38 -53 18z"/>
<path d="M14887 7623 c-9 -8 -9 -86 -1 -107 5 -13 23 -16 94 -16 49 0 92 5 95
10 4 6 -25 10 -79 10 l-86 0 0 45 0 45 86 0 c54 0 83 4 79 10 -7 11 -178 14
-188 3z"/>
<path d="M19080 7560 c0 -5 7 -10 16 -10 8 0 12 5 9 10 -3 6 -10 10 -16 10 -5
0 -9 -4 -9 -10z"/>
<path d="M10992 7465 c6 -14 22 -28 35 -31 13 -4 23 -11 23 -17 0 -6 8 -4 17
6 16 16 16 18 0 34 -11 11 -17 13 -17 5 0 -20 -31 -13 -37 8 -3 11 -11 20 -19
20 -11 0 -11 -5 -2 -25z"/>
<path d="M14630 6625 c0 -113 2 -135 15 -135 13 0 15 22 15 135 0 113 -2 135
-15 135 -13 0 -15 -22 -15 -135z"/>
<path d="M18652 6743 c5 -25 28 -28 28 -4 0 12 -6 21 -16 21 -9 0 -14 -7 -12
-17z"/>
<path d="M18887 6754 c-4 -4 -7 -25 -7 -46 0 -42 -2 -43 -29 -27 -43 27 -111
-29 -111 -91 0 -63 68 -118 112 -91 15 10 23 9 34 0 28 -23 35 5 32 131 -3
115 -10 144 -31 124z m-23 -110 c9 -9 16 -32 16 -54 0 -42 -20 -70 -50 -70
-30 0 -50 28 -50 70 0 42 20 70 50 70 10 0 26 -7 34 -16z"/>
<path d="M19330 6721 c0 -42 -14 -61 -33 -42 -18 18 -52 13 -81 -14 -21 -20
-26 -33 -26 -75 0 -41 5 -56 25 -75 26 -27 54 -31 85 -15 13 7 21 7 25 0 3 -5
13 -10 21 -10 11 0 14 24 14 135 0 113 -2 135 -15 135 -11 0 -15 -11 -15 -39z
m-26 -77 c57 -57 -6 -162 -65 -108 -38 34 -15 124 32 124 10 0 25 -7 33 -16z"/>
<path d="M6052 6618 c3 -101 6 -123 18 -123 12 0 15 22 18 123 3 117 2 122
-18 122 -20 0 -21 -5 -18 -122z"/>
<path d="M7200 6716 c0 -13 -6 -26 -12 -29 -10 -4 -10 -7 0 -18 7 -8 12 -40
12 -79 0 -52 4 -71 18 -83 24 -22 72 -23 72 -2 0 9 -9 15 -24 15 -27 0 -36 21
-36 86 0 43 13 64 42 64 29 0 21 18 -9 22 -20 2 -29 9 -31 26 -5 30 -32 29
-32 -2z"/>
<path d="M8390 6715 c0 -22 -4 -25 -38 -25 -21 0 -43 -5 -50 -12 -9 -9 -15 -9
-24 0 -24 24 -28 10 -28 -89 0 -76 3 -100 13 -97 7 3 13 29 15 70 3 71 11 83
60 97 43 13 52 -2 52 -81 0 -74 11 -88 65 -88 33 0 29 22 -6 30 -23 6 -24 10
-24 75 0 69 0 70 28 73 37 4 35 22 -3 22 -25 0 -30 4 -30 25 0 16 -6 25 -15
25 -9 0 -15 -9 -15 -25z"/>
<path d="M9911 6714 c-111 -93 1 -273 134 -212 29 13 36 45 8 33 -10 -4 -34
-9 -53 -12 -87 -12 -134 105 -67 167 23 22 85 27 118 10 15 -8 19 -7 19 4 0
43 -112 50 -159 10z"/>
<path d="M12520 6715 c0 -22 -4 -25 -38 -25 -21 0 -43 -5 -50 -12 -8 -8 -15
-8 -27 2 -27 23 -36 -2 -33 -96 2 -71 6 -89 18 -89 11 0 16 17 20 72 3 39 7
74 10 76 3 3 21 9 42 15 49 13 58 2 58 -78 0 -75 9 -90 58 -90 39 0 40 21 1
30 -23 6 -24 10 -24 75 0 69 0 70 28 73 37 4 35 22 -3 22 -25 0 -30 4 -30 25
0 16 -6 25 -15 25 -9 0 -15 -9 -15 -25z"/>
<path d="M13960 6628 c-24 -62 -45 -119 -48 -125 -9 -27 28 -11 43 17 15 30
18 31 73 28 49 -3 58 -6 69 -28 13 -27 40 -34 35 -10 -1 8 -21 63 -44 123 -35
91 -44 107 -63 107 -19 0 -28 -16 -65 -112z m94 7 c17 -52 11 -59 -41 -53 -31
3 -32 13 -7 73 18 43 27 39 48 -20z"/>
<path d="M16380 6715 c0 -14 -3 -25 -7 -26 -31 -3 -80 -8 -88 -10 -5 -1 -18 2
-27 6 -16 7 -18 -2 -18 -95 0 -77 3 -101 13 -98 7 3 14 31 17 71 5 72 12 83
56 96 48 13 54 6 54 -68 0 -53 4 -72 18 -84 24 -22 72 -23 72 -2 0 9 -9 15
-24 15 -29 0 -36 16 -36 79 0 50 13 71 42 71 10 0 18 5 18 10 0 6 -13 10 -30
10 -25 0 -30 4 -30 25 0 16 -6 25 -15 25 -9 0 -15 -9 -15 -25z"/>
<path d="M18194 6721 c-53 -32 -69 -111 -34 -168 36 -59 105 -78 176 -48 35
14 35 15 32 67 l-3 53 -39 0 c-23 0 -41 -5 -43 -12 -3 -8 5 -13 21 -13 23 0
26 -4 26 -35 0 -29 -4 -36 -26 -41 -42 -11 -97 7 -111 36 -22 43 -16 98 12
126 22 22 33 25 73 22 26 -2 53 -6 61 -9 25 -8 22 17 -4 29 -39 18 -106 14
-141 -7z"/>
<path d="M19540 6721 c0 -10 -7 -24 -15 -31 -13 -11 -13 -14 0 -27 10 -10 15
-36 15 -82 0 -76 9 -91 58 -91 39 0 40 21 1 30 -23 6 -24 10 -24 75 0 69 0 70
28 73 33 4 26 22 -9 22 -19 0 -24 5 -24 25 0 16 -6 25 -15 25 -8 0 -15 -8 -15
-19z"/>
<path d="M6160 6589 c0 -76 3 -100 13 -97 7 3 13 29 15 70 3 76 24 105 66 94
24 -6 25 -10 28 -84 2 -60 6 -77 18 -77 12 0 16 16 18 71 2 59 -1 75 -18 97
-23 29 -49 34 -82 16 -14 -8 -23 -8 -31 0 -23 23 -27 8 -27 -90z"/>
<path d="M6396 6669 c-14 -11 -26 -27 -26 -34 0 -21 41 -55 66 -55 27 0 48
-24 40 -46 -5 -13 -16 -16 -51 -11 -49 5 -67 -6 -36 -22 47 -26 131 2 131 42
0 23 -31 57 -51 57 -29 0 -59 18 -59 35 0 18 41 29 75 21 18 -5 25 -2 25 8 0
32 -75 35 -114 5z"/>
<path d="M6564 6677 c-2 -7 -3 -67 -2 -133 2 -98 6 -119 18 -119 10 0 16 13
18 43 3 40 14 53 27 32 9 -15 48 -12 72 5 13 9 28 33 34 54 10 33 9 45 -7 77
-23 46 -63 65 -96 45 -15 -9 -23 -10 -31 -2 -15 15 -27 14 -33 -2z m120 -33
c34 -34 12 -124 -30 -124 -37 0 -54 20 -54 65 0 47 19 75 50 75 10 0 26 -7 34
-16z"/>
<path d="M6811 6659 c-24 -24 -31 -39 -31 -71 0 -73 85 -123 151 -88 34 19 20
29 -29 23 -55 -6 -85 13 -80 51 3 19 10 21 71 24 70 3 74 6 56 45 -24 53 -93
61 -138 16z m93 -5 c9 -3 16 -12 16 -20 0 -10 -14 -14 -50 -14 -51 0 -64 11
-32 29 20 12 44 14 66 5z"/>
<path d="M7041 6676 c-45 -25 -63 -84 -40 -129 27 -53 93 -74 135 -42 18 13
16 14 -27 15 -56 0 -79 21 -79 73 0 45 34 73 80 64 35 -7 49 8 21 22 -26 15
-61 13 -90 -3z"/>
<path d="M7450 6590 c0 -77 3 -101 13 -98 7 3 14 31 17 72 5 71 22 96 63 96
11 0 17 5 14 13 -2 6 -15 11 -28 9 -13 -1 -28 -3 -34 -3 -5 -1 -18 2 -27 6
-16 7 -18 -2 -18 -95z"/>
<path d="M7609 6661 c-62 -62 -20 -171 66 -171 38 0 75 15 75 30 0 5 -22 7
-48 3 -42 -5 -52 -2 -70 18 -42 44 -25 59 64 59 51 0 54 2 54 24 0 31 -43 66
-82 66 -19 0 -40 -10 -59 -29z m92 -11 c34 -19 20 -30 -38 -30 l-58 1 24 19
c26 22 44 25 72 10z"/>
<path d="M7804 6677 c-2 -7 -3 -67 -2 -133 2 -98 6 -119 18 -119 10 0 16 13
18 43 3 40 14 53 27 32 9 -15 48 -12 72 5 29 21 44 75 32 119 -15 53 -77 84
-107 54 -9 -9 -15 -9 -24 0 -16 16 -27 15 -34 -1z m116 -27 c10 -6 15 -26 15
-60 0 -53 -12 -70 -50 -70 -32 0 -45 20 -45 72 0 34 5 50 18 57 22 13 43 13
62 1z"/>
<path d="M8049 6661 c-79 -79 18 -219 108 -156 32 22 47 77 33 119 -22 68 -91
86 -141 37z m93 -18 c25 -22 24 -84 -2 -108 -58 -52 -120 54 -64 110 20 20 43
19 66 -2z"/>
<path d="M10147 6666 c-47 -43 -48 -106 -2 -152 39 -39 112 -27 134 23 20 45
14 92 -18 124 -37 36 -78 38 -114 5z m84 -16 c15 -8 19 -21 19 -60 0 -39 -4
-52 -19 -60 -46 -24 -81 1 -81 60 0 59 35 84 81 60z"/>
<path d="M10340 6590 c0 -77 3 -101 13 -98 7 3 14 31 17 72 4 52 10 71 24 82
45 33 64 10 68 -81 2 -54 6 -70 18 -70 12 0 16 16 18 70 2 51 7 73 19 83 46
34 73 0 73 -89 0 -55 3 -69 15 -69 12 0 15 15 15 74 0 59 -4 78 -21 100 -24
30 -58 34 -85 8 -18 -18 -20 -18 -46 1 -20 15 -33 18 -55 12 -31 -9 -31 -9
-55 0 -16 7 -18 -2 -18 -95z"/>
<path d="M10680 6554 c0 -104 3 -135 13 -132 6 3 13 23 15 46 3 40 14 53 27
32 12 -19 61 -10 85 15 19 20 24 37 24 77 0 43 -4 54 -28 74 -30 26 -65 31
-84 12 -9 -9 -15 -9 -24 0 -7 7 -16 12 -20 12 -4 0 -8 -61 -8 -136z m114 90
c9 -9 16 -32 16 -54 0 -42 -20 -70 -50 -70 -30 0 -50 28 -50 70 0 42 20 70 50
70 10 0 26 -7 34 -16z"/>
<path d="M10928 6679 c-31 -18 -20 -30 22 -23 26 4 45 2 55 -6 24 -20 18 -27
-32 -33 -32 -3 -53 -12 -65 -27 -23 -29 -23 -41 3 -74 22 -28 66 -35 87 -14 8
8 15 8 26 -1 24 -20 36 -4 36 47 0 61 -15 111 -37 128 -21 16 -71 18 -95 3z
m92 -108 c0 -23 -25 -51 -45 -51 -28 0 -45 13 -45 35 0 26 11 33 58 34 25 1
32 -3 32 -18z"/>
<path d="M11120 6589 c0 -76 3 -100 13 -97 7 3 13 28 15 69 3 68 22 99 63 99
10 0 19 5 19 10 0 17 -27 22 -50 10 -16 -9 -25 -9 -33 -1 -23 23 -27 8 -27
-90z"/>
<path d="M11279 6661 c-62 -62 -20 -171 66 -171 39 0 75 15 75 31 0 6 -19 7
-49 3 -42 -5 -51 -3 -70 17 -41 44 -24 59 65 59 51 0 54 2 54 24 0 31 -43 66
-82 66 -19 0 -40 -10 -59 -29z m92 -11 c34 -19 20 -30 -38 -30 l-58 1 24 19
c26 22 44 25 72 10z"/>
<path d="M11580 6590 c0 -77 3 -101 13 -98 7 3 14 31 17 72 5 71 22 96 63 96
11 0 17 5 14 13 -2 6 -15 11 -28 9 -13 -1 -28 -3 -34 -3 -5 -1 -18 2 -27 6
-16 7 -18 -2 -18 -95z"/>
<path d="M11739 6661 c-62 -62 -20 -171 66 -171 39 0 75 15 75 31 0 6 -19 7
-49 3 -42 -5 -51 -3 -70 17 -41 44 -24 59 65 59 51 0 54 2 54 24 0 31 -43 66
-82 66 -19 0 -40 -10 -59 -29z m92 -11 c34 -19 20 -30 -38 -30 l-58 1 24 19
c26 22 44 25 72 10z"/>
<path d="M11937 6683 c-4 -3 -7 -64 -7 -135 0 -107 2 -128 15 -128 10 0 15 10
15 33 0 42 11 59 30 47 26 -17 60 -11 85 15 20 19 25 34 25 75 0 42 -5 55 -26
75 -29 27 -63 32 -82 13 -9 -9 -15 -9 -24 0 -14 14 -22 15 -31 5z m122 -54
c22 -39 7 -97 -26 -105 -41 -11 -58 7 -61 62 -3 37 1 51 15 62 26 18 55 11 72
-19z"/>
<path d="M12179 6661 c-43 -43 -38 -121 10 -158 27 -21 79 -15 106 12 20 19
25 34 25 75 0 42 -5 55 -26 75 -37 34 -78 33 -115 -4z m93 -18 c40 -36 13
-123 -38 -123 -49 0 -71 78 -34 118 25 26 47 28 72 5z"/>
<path d="M14190 6589 c0 -76 3 -100 13 -97 7 3 14 32 17 77 5 73 15 91 51 91
28 0 38 -23 41 -95 2 -54 6 -70 18 -70 22 0 26 114 5 154 -18 35 -59 50 -88
32 -14 -9 -22 -10 -30 -2 -23 23 -27 8 -27 -90z"/>
<path d="M14438 6683 c-10 -2 -18 -11 -18 -19 0 -11 9 -13 40 -8 26 4 45 2 55
-6 25 -21 17 -30 -25 -30 -30 0 -47 -7 -65 -25 -30 -29 -31 -45 -4 -79 22 -28
66 -35 87 -14 8 8 15 8 26 -1 24 -20 36 -4 36 47 0 61 -15 111 -37 128 -18 13
-60 16 -95 7z m92 -112 c0 -23 -25 -51 -45 -51 -28 0 -45 13 -45 35 0 26 11
33 58 34 25 1 32 -3 32 -18z"/>
<path d="M14720 6677 c0 -9 16 -53 36 -98 30 -70 33 -87 23 -105 -6 -12 -20
-25 -30 -27 -27 -7 -23 -27 4 -27 29 0 48 21 71 80 11 25 27 64 38 88 10 24
22 57 25 74 11 53 -20 28 -47 -40 -14 -34 -29 -62 -35 -62 -5 0 -21 28 -35 62
-24 58 -50 87 -50 55z"/>
<path d="M14936 6681 c-8 -12 18 -21 60 -21 19 0 34 -4 34 -9 0 -5 -22 -36
-50 -69 -70 -84 -68 -92 25 -92 41 0 75 4 75 9 0 13 -26 21 -66 21 -19 0 -34
3 -34 8 0 4 22 34 50 67 70 84 67 95 -19 95 -39 0 -72 -4 -75 -9z"/>
<path d="M15141 6661 c-25 -24 -31 -37 -31 -71 0 -34 6 -47 31 -71 33 -31 82
-39 120 -19 34 19 20 29 -29 23 -55 -6 -85 13 -80 51 3 19 10 21 71 24 70 3
74 6 56 45 -24 52 -92 61 -138 18z m93 -7 c9 -3 16 -12 16 -20 0 -10 -14 -14
-50 -14 -51 0 -64 11 -32 29 20 12 44 14 66 5z"/>
<path d="M15444 6677 c-10 -28 1 -180 14 -185 8 -2 12 12 13 50 2 81 10 102
47 113 18 5 32 15 32 22 0 16 -32 17 -48 1 -9 -9 -15 -9 -24 0 -16 16 -27 15
-34 -1z"/>
<path d="M15601 6661 c-25 -24 -31 -37 -31 -71 0 -34 6 -47 31 -71 33 -31 82
-39 120 -19 34 19 20 29 -29 23 -55 -6 -85 13 -80 51 3 19 10 21 71 24 70 3
74 6 56 45 -24 52 -92 61 -138 18z m93 -7 c9 -3 16 -12 16 -20 0 -10 -14 -14
-50 -14 -51 0 -64 11 -32 29 20 12 44 14 66 5z"/>
<path d="M15800 6555 c0 -113 2 -135 15 -135 11 0 15 11 15 39 0 40 13 61 25
41 12 -19 61 -11 85 15 19 20 24 37 24 77 0 43 -4 54 -28 74 -30 26 -65 31
-84 12 -9 -9 -15 -9 -24 0 -7 7 -16 12 -20 12 -4 0 -8 -61 -8 -135z m107 97
c22 -14 33 -60 22 -89 -26 -70 -99 -51 -99 24 0 55 40 89 77 65z"/>
<path d="M16045 6666 c-28 -29 -40 -66 -31 -102 4 -14 18 -37 31 -50 55 -55
145 -7 145 76 0 83 -90 131 -145 76z m89 -22 c24 -23 21 -100 -3 -114 -46 -24
-81 1 -81 60 0 42 20 70 50 70 10 0 26 -7 34 -16z"/>
<path d="M18420 6611 c0 -68 3 -84 20 -101 22 -22 51 -26 80 -10 13 7 21 7 25
0 3 -5 13 -10 21 -10 11 0 14 20 14 100 0 82 -3 100 -15 100 -12 0 -15 -14
-15 -65 0 -70 -20 -105 -59 -105 -28 0 -35 16 -41 94 -3 43 -10 71 -17 74 -10
3 -13 -17 -13 -77z"/>
<path d="M18654 6677 c-10 -28 1 -180 14 -185 9 -3 12 21 12 97 0 63 -4 101
-10 101 -6 0 -13 -6 -16 -13z"/>
<path d="M19021 6676 c-13 -7 -30 -24 -37 -37 -49 -88 45 -181 140 -138 36 17
22 30 -23 23 -44 -7 -77 7 -86 37 -10 30 9 39 78 39 54 0 57 1 57 24 0 29 -46
66 -82 66 -12 -1 -34 -7 -47 -14z m85 -33 c17 -17 16 -18 -14 -21 -18 -2 -44
-2 -59 0 -26 3 -26 4 -9 21 10 9 28 17 41 17 13 0 31 -8 41 -17z"/>
<path d="M19697 6666 c-47 -43 -48 -106 -2 -152 57 -57 145 -10 145 76 0 86
-84 131 -143 76z m87 -19 c22 -16 26 -88 6 -112 -16 -20 -54 -19 -74 1 -21 20
-20 83 1 106 19 21 42 23 67 5z"/>
<path d="M19890 6606 c0 -76 2 -86 22 -100 27 -19 59 -21 76 -4 9 9 15 9 24 0
7 -7 18 -12 25 -12 19 0 14 191 -4 198 -9 3 -13 -12 -13 -52 0 -72 -13 -104
-45 -112 -39 -10 -49 8 -55 88 -3 44 -10 73 -17 76 -10 3 -13 -18 -13 -82z"/>
<path d="M20126 6683 c-3 -3 -6 -48 -6 -100 0 -76 3 -93 15 -93 11 0 15 13 15
54 0 76 13 105 50 112 16 4 30 13 30 20 0 16 -28 18 -49 5 -9 -6 -22 -6 -32
-1 -9 5 -19 6 -23 3z"/>
<path d="M13011 4172 c-13 -24 -15 -300 -2 -320 4 -8 19 -12 32 -10 22 3 24 9
27 59 l3 56 66 6 c78 6 114 29 127 80 12 48 -2 95 -37 120 -21 16 -46 22 -116
25 -82 4 -90 3 -100 -16z m170 -52 c13 -7 19 -21 19 -45 0 -42 -24 -57 -83
-53 l-42 3 -3 53 -3 52 46 0 c26 0 55 -5 66 -10z"/>
<path d="M13338 4184 c-5 -4 -8 -83 -8 -176 l0 -168 95 0 c109 0 138 10 160
57 17 35 14 61 -11 101 -13 19 -12 25 2 48 14 20 15 33 8 61 -14 57 -48 75
-150 80 -49 3 -92 2 -96 -3z m163 -64 c10 -6 19 -19 19 -30 0 -33 -28 -50 -81
-50 l-49 0 0 45 0 45 46 0 c25 0 54 -5 65 -10z m23 -162 c21 -34 -4 -53 -73
-56 l-61 -3 0 41 0 41 61 -3 c46 -2 65 -8 73 -20z"/>
<path d="M13672 4182 c-9 -7 -12 -48 -10 -173 l3 -164 24 -3 c13 -2 28 2 32
10 12 19 11 296 -1 319 -11 20 -27 24 -48 11z"/>
<path d="M12540 4103 c-34 -13 -68 -45 -83 -76 -16 -33 -17 -33 -74 -29 -53 4
-61 2 -86 -23 l-27 -28 0 -183 c0 -179 1 -183 24 -211 l24 -28 187 0 187 0 24
28 c28 33 32 92 9 136 -16 33 -33 41 -80 41 -30 0 -33 4 -43 40 -11 44 -8 50
23 50 11 0 26 5 33 12 10 10 24 0 66 -41 36 -36 60 -52 70 -48 26 10 19 29
-34 82 l-49 50 14 43 c24 69 -3 140 -67 173 -36 18 -87 23 -118 12z m84 -47
c72 -30 89 -111 35 -165 -23 -24 -40 -31 -68 -31 -111 0 -145 143 -46 194 37
19 38 19 79 2z m-213 -106 c18 -10 19 -23 19 -195 l0 -185 -48 0 c-26 0 -53 5
-60 12 -8 8 -12 63 -12 179 0 139 3 170 16 183 18 18 56 21 85 6z m147 -267
l3 -113 -56 0 -55 0 0 116 0 115 53 -3 52 -3 3 -112z m132 -12 c31 -59 -6
-116 -72 -109 l-33 3 -3 63 -3 62 50 0 c39 0 53 -4 61 -19z"/>
<path d="M13000 3640 l0 -120 70 0 c40 0 70 4 70 10 0 6 -28 10 -65 10 l-65 0
0 50 0 50 63 2 62 1 -60 6 -60 6 -3 47 -3 47 68 4 68 3 -72 2 -73 2 0 -120z"/>
<path d="M13544 3645 c1 -112 2 -120 21 -123 19 -3 19 -2 3 11 -14 11 -18 35
-21 123 l-3 109 0 -120z"/>
<path d="M13190 3679 c0 -9 7 -22 15 -29 27 -23 28 -49 1 -81 -14 -17 -26 -36
-26 -42 0 -7 12 5 27 26 14 20 30 37 34 37 4 0 20 -16 35 -35 15 -20 29 -33
32 -31 2 3 -10 23 -27 45 l-32 41 27 35 c15 20 24 38 22 41 -3 3 -16 -11 -28
-30 -12 -20 -23 -36 -25 -36 -3 0 -16 17 -30 37 -14 22 -25 31 -25 22z"/>
<path d="M13350 3571 c0 -74 4 -121 10 -121 6 0 10 21 10 47 0 37 3 44 12 35
18 -18 56 -14 78 8 14 14 20 33 20 65 0 66 -45 104 -90 75 -9 -5 -19 -5 -27 2
-10 8 -13 -13 -13 -111z m90 99 c24 -13 36 -73 22 -105 -13 -29 -44 -40 -72
-25 -16 9 -20 21 -20 66 0 47 3 56 23 64 29 11 26 11 47 0z"/>
<path d="M13631 3671 c-46 -46 -17 -151 42 -151 45 0 62 23 62 84 0 62 -7 73
-52 82 -24 5 -36 1 -52 -15z m83 -12 c5 -4 9 -29 10 -54 1 -47 -18 -75 -51
-75 -25 0 -53 39 -53 75 0 61 54 92 94 54z"/>
<path d="M13802 3605 c2 -78 2 -81 5 -25 4 69 15 90 44 90 11 0 19 5 19 10 0
12 -20 13 -40 0 -9 -6 -17 -5 -22 3 -4 7 -7 -28 -6 -78z"/>
<path d="M13921 3673 c-46 -38 -24 -153 30 -153 23 0 73 19 67 26 -3 2 -18 0
-33 -6 -34 -13 -75 9 -75 40 0 18 7 20 55 20 54 0 55 1 55 29 0 50 -59 76 -99
44z m67 -9 c12 -8 22 -24 22 -35 0 -16 -7 -19 -50 -19 -43 0 -50 3 -50 19 0
17 33 51 50 51 3 0 16 -7 28 -16z"/>
<path d="M14082 3605 c1 -89 1 -89 7 -25 7 74 14 90 42 90 10 0 19 5 19 10 0
12 -20 13 -40 0 -9 -6 -17 -5 -22 3 -4 7 -7 -28 -6 -78z"/>
<path d="M13566 3094 c-27 -26 -18 -53 33 -107 l49 -51 47 46 c39 39 46 52 43
79 -4 42 -28 57 -68 42 -17 -6 -32 -7 -36 -2 -9 14 -51 10 -68 -7z m94 -39
c34 -35 41 -48 32 -57 -9 -9 -23 -1 -62 37 -35 34 -46 51 -37 57 18 12 20 11
67 -37z m64 -19 c-6 -15 -10 -14 -35 10 -22 21 -25 29 -16 39 17 19 61 -24 51
-49z m-100 -15 c40 -41 45 -49 30 -55 -19 -7 -77 41 -70 59 2 5 -3 18 -12 28
-34 38 7 14 52 -32z"/>
<path d="M13640 3048 c41 -45 50 -53 50 -45 0 2 -21 23 -47 47 l-48 45 45 -47z"/>
<path d="M13695 3060 c10 -11 20 -20 23 -20 3 0 -3 9 -13 20 -10 11 -20 20
-23 20 -3 0 3 -9 13 -20z"/>
<path d="M13590 3027 c0 -2 15 -16 33 -33 l32 -29 -29 33 c-28 30 -36 37 -36
29z"/>
<path d="M12910 3070 c0 -27 -3 -30 -24 -24 -27 6 -56 -17 -56 -46 0 -36 49
-65 66 -39 4 8 9 7 15 -2 5 -9 9 16 9 64 0 42 -2 77 -5 77 -3 0 -5 -14 -5 -30z
m-6 -52 c14 -23 -3 -53 -30 -53 -20 0 -31 33 -20 61 7 19 35 14 50 -8z"/>
<path d="M13373 3025 c0 -44 2 -63 4 -43 8 70 53 76 53 7 0 -21 5 -39 10 -39
15 0 12 64 -4 86 -13 16 -18 17 -35 7 -18 -11 -20 -10 -24 25 -2 20 -4 1 -4
-43z"/>
<path d="M13852 3029 l-2 -76 36 2 c39 1 55 18 52 54 -4 33 -32 50 -57 34 -18
-11 -20 -9 -24 25 -2 20 -4 3 -5 -39z m68 -9 c20 -38 -19 -77 -48 -48 -23 23
-7 68 25 68 7 0 17 -9 23 -20z"/>
<path d="M13305 3070 c-11 -18 -7 -91 7 -107 6 -7 16 -13 22 -12 7 0 6 2 -1 6
-8 2 -13 22 -13 44 0 24 5 39 13 39 8 0 9 3 1 8 -6 4 -13 14 -16 22 -4 12 -6
12 -13 0z"/>
<path d="M12393 3000 c0 -30 2 -43 4 -27 2 15 2 39 0 55 -2 15 -4 2 -4 -28z"/>
<path d="M12439 3034 c-11 -14 -10 -18 5 -30 10 -7 23 -15 29 -17 19 -6 -5
-29 -26 -23 -14 3 -17 2 -9 -6 13 -13 52 -1 52 17 0 8 -9 19 -20 25 -27 14
-27 44 0 37 11 -3 18 -1 14 4 -8 14 -30 11 -45 -7z"/>
<path d="M12570 3000 c0 -29 2 -51 4 -49 8 8 10 88 3 95 -4 4 -7 -17 -7 -46z"/>
<path d="M12613 3039 c11 -7 18 -24 19 -52 l1 -42 4 37 c4 39 28 67 43 52 5
-5 10 -27 13 -49 4 -39 4 -39 5 8 2 50 -15 70 -41 49 -8 -7 -18 -7 -27 -2 -8
6 -19 10 -25 10 -5 -1 -2 -5 8 -11z"/>
<path d="M12744 3039 c-4 -7 0 -9 14 -5 24 8 41 -12 21 -25 -11 -7 -11 -9 -1
-9 8 0 12 -9 10 -22 -2 -11 3 -23 10 -25 15 -6 17 50 2 78 -12 21 -45 26 -56
8z"/>
<path d="M12966 3034 c-32 -31 -11 -85 32 -83 23 2 24 2 4 6 -12 2 -27 13 -32
24 -10 17 -7 19 25 19 36 0 46 15 23 38 -16 16 -33 15 -52 -4z m52 -11 c2 -8
-6 -13 -22 -13 -25 0 -33 10 -19 24 10 10 36 3 41 -11z"/>
<path d="M13101 3047 c-2 -19 22 -97 29 -97 5 0 11 13 15 30 10 43 23 46 31 5
3 -19 10 -35 15 -35 12 0 12 -3 -10 55 l-19 50 -11 -28 c-6 -16 -11 -33 -11
-39 0 -18 -14 1 -27 35 -6 18 -12 28 -12 24z"/>
<path d="M13206 3018 c-9 -43 -2 -45 11 -3 6 19 8 35 3 35 -4 0 -10 -14 -14
-32z"/>
<path d="M13253 3000 c0 -30 2 -43 4 -27 2 15 2 39 0 55 -2 15 -4 2 -4 -28z"/>
<path d="M13961 3044 c-1 -6 6 -29 15 -49 8 -21 13 -46 11 -57 -3 -10 -2 -18
2 -18 4 0 19 29 33 65 15 36 23 65 19 65 -4 0 -14 -19 -22 -42 l-16 -43 -21
45 c-11 25 -21 40 -21 34z"/>
<path d="M12734 2985 c-8 -19 3 -35 24 -35 15 1 15 2 -1 11 -14 8 -16 14 -6
25 8 10 9 14 0 14 -6 0 -14 -7 -17 -15z"/>
<path d="M11850 2617 c-117 -67 -120 -70 -131 -108 -17 -56 -8 -223 14 -247
23 -25 198 -122 221 -122 10 0 37 12 61 26 41 24 45 24 74 10 45 -24 145 -21
199 5 58 29 117 104 131 169 17 81 -8 166 -65 224 -66 65 -160 89 -247 61 -53
-16 -55 -16 -95 4 -58 29 -77 27 -162 -22z m145 -13 c17 -13 18 -16 5 -24 -8
-4 -38 -23 -65 -42 l-50 -33 -3 -85 c-2 -47 0 -95 3 -107 3 -13 30 -37 67 -59
l61 -37 -23 -19 c-31 -25 -38 -24 -122 24 -119 67 -118 66 -118 177 0 53 4
102 9 110 13 20 173 111 196 110 11 0 29 -7 40 -15z m291 -29 c139 -82 125
-298 -24 -361 -37 -15 -138 -19 -146 -6 -3 5 21 24 53 42 33 18 64 43 70 57 6
13 11 60 11 104 0 91 -6 100 -96 153 -47 28 -48 30 -24 37 40 13 110 1 156
-26z m-236 -20 c0 -2 -10 -9 -22 -15 -22 -11 -22 -10 -4 4 21 17 26 19 26 11z
m158 -156 l-3 -74 -5 82 c-3 45 -1 78 3 74 4 -4 7 -41 5 -82z"/>
<path d="M12590 2516 c0 -10 13 -16 38 -18 l37 -3 3 -112 c2 -90 6 -113 17
-113 11 0 15 23 17 113 l3 112 38 3 c24 2 37 8 37 18 0 11 -19 14 -95 14 -76
0 -95 -3 -95 -14z"/>
<path d="M12992 2403 l3 -127 49 -2 c27 -2 57 1 67 7 41 21 42 137 2 167 -12
9 -31 11 -55 8 l-38 -6 0 40 c0 29 -4 40 -15 40 -13 0 -15 -18 -13 -127z m102
11 c32 -32 12 -114 -28 -114 -38 0 -54 92 -20 117 23 17 29 16 48 -3z"/>
<path d="M13410 2412 c0 -122 6 -142 42 -142 22 0 24 26 3 34 -12 4 -15 27
-15 116 0 91 -3 110 -15 110 -12 0 -15 -20 -15 -118z"/>
<path d="M13958 2523 l42 -4 0 -125 c0 -76 4 -124 10 -124 6 0 10 48 10 124
l0 125 43 4 c23 2 -1 4 -53 4 -52 0 -76 -2 -52 -4z"/>
<path d="M14510 2419 c0 -115 9 -149 38 -149 16 1 16 2 0 14 -15 11 -18 30
-18 130 0 71 -4 116 -10 116 -6 0 -10 -44 -10 -111z"/>
<path d="M12804 2446 c-27 -21 -6 -43 25 -26 28 15 61 4 61 -21 0 -15 -7 -19
-33 -19 -67 0 -100 -56 -57 -95 18 -16 27 -17 61 -8 22 6 42 6 45 2 3 -5 14
-9 25 -9 20 0 26 24 9 35 -5 3 -10 31 -10 61 0 41 -5 59 -20 74 -24 24 -77 27
-106 6z m91 -105 c7 -13 -23 -41 -44 -41 -23 0 -41 19 -34 36 6 16 69 19 78 5z"/>
<path d="M13200 2380 c0 -72 2 -81 23 -94 14 -10 41 -14 72 -12 l50 2 3 84 c3
78 -7 114 -25 96 -5 -4 -10 -37 -13 -73 -6 -73 -24 -98 -57 -77 -14 9 -19 28
-21 83 -2 54 -6 71 -17 71 -12 0 -15 -17 -15 -80z"/>
<path d="M13524 2446 c-27 -21 -6 -43 25 -26 28 15 61 4 61 -21 0 -15 -7 -19
-33 -19 -67 0 -100 -56 -57 -95 18 -16 27 -17 61 -8 22 6 42 6 45 2 3 -5 14
-9 25 -9 20 0 26 24 9 35 -5 3 -10 31 -10 61 0 41 -5 59 -20 74 -24 24 -77 27
-106 6z m96 -105 c0 -16 -30 -41 -49 -41 -23 0 -41 19 -34 36 6 16 83 20 83 5z"/>
<path d="M13714 2451 c-10 -10 -3 -170 7 -177 18 -11 29 17 29 78 0 56 11 75
45 76 6 1 11 8 13 16 3 11 -7 14 -43 13 -26 -1 -49 -4 -51 -6z"/>
<path d="M14126 2428 c-9 -13 -16 -43 -16 -70 0 -57 25 -88 70 -88 47 0 70 30
70 94 0 66 -16 86 -70 86 -29 0 -43 -6 -54 -22z m94 -8 c23 -23 27 -87 8 -113
-18 -23 -60 -30 -82 -14 -11 8 -20 31 -23 59 -4 37 -2 49 16 67 26 26 55 27
81 1z"/>
<path d="M14326 2428 c-9 -13 -16 -43 -16 -70 0 -57 25 -88 70 -88 47 0 70 30
70 94 0 66 -16 86 -70 86 -29 0 -43 -6 -54 -22z m94 -8 c23 -23 27 -87 8 -113
-22 -28 -63 -32 -87 -8 -44 44 -16 141 39 141 11 0 29 -9 40 -20z"/>
<path d="M14618 2439 c-29 -16 -23 -58 10 -70 75 -29 89 -42 74 -67 -10 -14
-58 -19 -87 -8 -20 8 -20 7 -1 -8 42 -34 111 -11 104 35 -2 17 -15 30 -45 44
-60 29 -68 39 -47 59 13 13 26 16 52 11 23 -4 32 -3 27 4 -8 14 -64 14 -87 0z"/>
</g>
</svg>
