<?xml version="1.0" encoding="iso-8859-1"?><!-- Generator: Adobe Illustrator 21.1.0, SVG Export Plug-In . SVG Version: 6.00 Build 0)  --><svg xmlns="http://www.w3.org/2000/svg" xmlns:xlink="http://www.w3.org/1999/xlink" viewBox="0 0 50 50" width="50px" height="50px"><path d="M25,12.62c-0.55,0-1,0.46-1,1.02v2.81c0,0.56,0.45,1.02,1,1.02s1-0.46,1-1.02v-2.81C26,13.08,25.55,12.62,25,12.62z M25,12.62c-0.55,0-1,0.46-1,1.02v2.81c0,0.56,0.45,1.02,1,1.02s1-0.46,1-1.02v-2.81C26,13.08,25.55,12.62,25,12.62z M41,4H9C6.24,4,4,6.24,4,9v32c0,2.76,2.24,5,5,5h32c2.76,0,5-2.24,5-5V9C46,6.24,43.76,4,41,4z M29,11h2c0,0,0,4.38,0,6c0.05,0.27,0.34,0.39,0.61,0.39c0.41,0,0.93-0.48,1.39-1.01V11h2v8h-2v-1.38c-0.81,0.79-1.5,1.38-2.41,1.35c-0.66-0.02-1.12-0.26-1.35-0.74C29.1,17.95,29,17.5,29,16.84V11z M27.33,11.95c0.43,0.49,0.67,1.28,0.67,2.32v1.46c0,1.04-0.2,1.76-0.62,2.25C26.82,18.65,25.89,19,25,19s-1.8-0.35-2.36-1.02C22.21,17.49,22,16.77,22,15.73v-1.45c0-1.04,0.23-1.84,0.67-2.33C23.23,11.27,23.99,11,25,11C25.89,11,26.77,11.27,27.33,11.95z M17.4,8l1.6,4l1.6-4H23l-3,7v4h-2v-4.01c-0.6-1.61-2.59-5.98-3-6.99H17.4z M41,33.18c0,2.53-0.32,4.06-0.32,4.06s-0.31,2.16-1.27,3.1c-1.22,1.25-2.58,1.26-3.21,1.33C31.72,41.99,25,42,25,42s-8.32-0.08-10.88-0.32c-0.71-0.13-2.31-0.09-3.53-1.33c-0.96-0.95-1.27-3.11-1.27-3.11S9,35.71,9,33.18v-2.37c0-2.53,0.32-4.06,0.32-4.06s0.31-2.16,1.27-3.1c1.22-1.25,2.58-1.26,3.21-1.33C18.28,22,24.99,22,24.99,22h0.02c0,0,6.71,0,11.19,0.32c0.63,0.07,1.99,0.08,3.21,1.33c0.96,0.94,1.27,3.1,1.27,3.1S41,28.28,41,30.81V33.18z M25,17.47c0.55,0,1-0.46,1-1.02v-2.81c0-0.56-0.45-1.02-1-1.02s-1,0.46-1,1.02v2.81C24,17.01,24.45,17.47,25,17.47z"/><polygon points="18,26 18,27.979 16,27.979 16,38 14,38 14,27.979 12,27.979 12,26 "/><path d="M24,29v9h-2v-1.365C21.21,37.486,20.27,38,19.54,38c-0.64,0-1.09-0.277-1.31-0.791C18.1,36.892,18,36.407,18,35.685V29h2v6.893c0.05,0.287,0.26,0.396,0.52,0.396c0.4,0,1.04-0.435,1.48-1.019V29H24z"/><path d="M30.741,30.223c-0.252-0.781-0.863-1.218-1.616-1.223c-0.98-0.007-1.375,0.5-2.125,1.375V26h-2v12h2v-1.25c0.631,0.781,1.453,1.25,2.125,1.25c0.752,0,1.408-0.405,1.66-1.18c0.119-0.419,0.207-0.81,0.215-1.695v-2.75C31,31.387,30.867,30.643,30.741,30.223z M29,34.875c0,1.044-0.235,1.405-0.78,1.405c-0.311,0-0.904-0.214-1.22-0.53v-4.375c0.316-0.312,0.909-0.628,1.22-0.628c0.545,0,0.78,0.334,0.78,1.378V34.875z"/><path d="M36,35.799c0,0.464-0.448,0.839-1,0.839s-1-0.376-1-0.839c0-0.113,0-1.635,0-1.799h4v-0.577v-1.444c0-0.935-0.229-1.62-0.642-2.063C36.805,29.317,36.019,29,35.029,29c-1.008,0-1.794,0.317-2.364,0.916C32.245,30.358,32,31.081,32,32.018v3.066c0,0.931,0.269,1.582,0.688,2.019C33.259,37.702,34.045,38,35.077,38c1.031,0,1.841-0.313,2.387-0.949c0.24-0.281,0.395-0.598,0.462-0.95C37.944,35.942,38,35.511,38,35h-2C36,35.273,36,35.687,36,35.799z M34,31.287c0-0.464,0.448-0.839,1-0.839s1,0.376,1,0.839c0,0.084,0,1.073,0,1.328h-2C34,32.36,34,31.367,34,31.287z"/></svg>