<?xml version="1.0" encoding="utf-8"?>
<!-- Generator: Adobe Illustrator 24.1.0, SVG Export Plug-In . SVG Version: 6.00 Build 0)  -->
<svg version="1.1" id="Layer_1" xmlns="http://www.w3.org/2000/svg" xmlns:xlink="http://www.w3.org/1999/xlink" x="0px" y="0px"
	 viewBox="0 0 265 38" style="enable-background:new 0 0 265 38;" xml:space="preserve">
<style type="text/css">
	.st0{fill:#333333;}
	.st1{fill:#FFC100;}
	.st2{fill:#ED1C24;}
	.st3{fill:#39B54A;}
</style>
<g>
	<path class="st0" d="M166.4,19h10.1v12.6c-2.9,1.2-5.9,1.8-9,1.7c-3.7,0.3-7.4-1.1-10-3.7c-2.5-2.9-3.7-6.7-3.5-10.5
		c0-2.6,0.6-5.2,1.8-7.5c1.1-2.1,2.8-3.9,5-5c2.3-1.2,4.8-1.8,7.4-1.8c2.8-0.1,5.6,0.5,8.1,1.6l-0.8,1.7c-2.3-1.1-4.9-1.6-7.5-1.6
		c-3.2-0.2-6.4,1.1-8.7,3.4c-2.2,2.5-3.4,5.8-3.2,9.1c0,4.2,1,7.3,3.1,9.4c2.4,2.3,5.6,3.4,8.9,3.2c2.2,0.1,4.4-0.3,6.5-1.1v-9.8
		h-8.2L166.4,19z"/>
	<path class="st0" d="M203.9,5.3v17.9c0.2,2.8-0.8,5.5-2.8,7.5c-2.1,1.9-4.9,2.9-7.7,2.7c-2.8,0.2-5.5-0.8-7.5-2.7
		c-1.9-2-2.8-4.8-2.7-7.5V5.3h1.9v17.9c-0.1,2.3,0.7,4.5,2.2,6.2c1.7,1.6,4,2.4,6.3,2.2c2.3,0.1,4.5-0.7,6.1-2.2
		c1.5-1.6,2.3-3.8,2.2-6.1v-18H203.9z"/>
	<path class="st0" d="M211.5,33V5.3h1.9V33H211.5z"/>
	<path class="st0" d="M242.2,18.9c0,4.6-1.2,8.2-3.7,10.5c-2.4,2.4-6,3.6-10.7,3.6h-6.5V5.3h7.5c4.4,0,7.8,1.2,10.1,3.5
		C241.1,11.1,242.2,14.4,242.2,18.9z M240.1,18.9c0.2-3.3-0.8-6.5-3-8.9c-2.4-2.1-5.6-3.2-8.9-3h-5.1v24.2h4.5
		C236,31.3,240.1,27.1,240.1,18.9z"/>
	<path class="st0" d="M263.7,33h-15.1V5.3h15.1V7h-13.2v10.5H263v1.8h-12.5v11.9h13.2V33z"/>
	<path class="st0" d="M79.6,4.9H69v28.3h10.6c9.4,0,15.4-5.3,15.4-14.2S89,4.9,79.6,4.9z M79.3,27.2h-3V10.8h3
		c4.9,0,8.1,2.8,8.1,8.1S84.4,27.2,79.3,27.2z"/>
	<path class="st0" d="M131.2,27.2c0.7-1.1,1.3-2.3,1.8-3.5h0.1c0,0,0.8,1.7,1.8,3.5l3.4,5.9h8.1l-9.1-14l9.1-14.2h-8.3l-3.3,5.8
		c-0.7,1.2-1.3,2.4-1.8,3.6H133c0,0-0.8-1.8-1.8-3.6L128,4.9h-8.3l9,14.2l-9,14h8L131.2,27.2z"/>
	<path class="st0" d="M118.9,32.6l1.6-2.6l-8.9-25.1h-7.7L93.8,33.1h7.5l1.8-5.9h9.3l1.9,5.9h4.3L118.9,32.6z M104.8,21.7l1.7-5.5
		c0.6-1.8,1.2-4.8,1.2-4.8l0,0c0,0,0.7,3.1,1.2,4.8l1.7,5.5H104.8z"/>
	<path class="st1" d="M32,12.8H17.3c-1.7-0.2-2.9-1.7-2.7-3.3c0.1-1.4,1.3-2.6,2.7-2.7h14.6c1.6,0.1,2.8,1.4,2.8,3
		C34.7,11.4,33.6,12.7,32,12.8z"/>
	<path class="st2" d="M39.2,22H22.8c-1.7-0.2-2.9-1.7-2.7-3.3c0.1-1.4,1.3-2.6,2.7-2.7h16.4c1.7,0.2,2.9,1.7,2.7,3.3
		C41.8,20.7,40.6,21.9,39.2,22z"/>
	<path class="st3" d="M35,31.2H13.8c-1.7-0.2-2.9-1.7-2.7-3.3c0.1-1.4,1.3-2.6,2.7-2.7H35c1.6,0.1,2.8,1.4,2.8,3
		C37.7,29.7,36.6,31,35,31.2z"/>
	<path class="st0" d="M50.4,0h-9.1c-1.1,0.1-2,1.1-1.9,2.2c0.1,1,0.9,1.8,1.9,1.9h6.2v29.8h-6.2c-1.1,0.1-2,1.1-1.9,2.2
		c0.1,1,0.9,1.8,1.9,1.9h9c1.1,0,2-0.9,2-2V2.1C52.4,0.9,51.5,0,50.4,0z"/>
	<path class="st0" d="M2,0h9.1c1.1-0.1,2.1,0.7,2.2,1.9C13.5,3,12.6,4,11.5,4.1c-0.1,0-0.2,0-0.4,0H4.9v29.8h6.2
		c1.1-0.1,2.1,0.7,2.2,1.9c0.1,1.1-0.7,2.1-1.9,2.2c-0.1,0-0.2,0-0.4,0H2c-1.1,0-2-0.9-2-2V2.1C0,0.9,0.9,0,2,0L2,0z"/>
</g>
</svg>
