<svg height="80" viewBox="0 0 141 80" width="141" xmlns="http://www.w3.org/2000/svg"><path d="m21.1335626 64.7615094c1.9717379 0 3.6298075.6483019 4.9757165 1.9456604 1.4590107 1.4030189 2.1888931 3.2724528 2.1888931 5.6098113 0 2.3720755-.7547647 4.2603774-2.2635401 5.6633963-1.3526952 1.2543396-2.9866364 1.8807547-4.9010695 1.8807547-2.0501551 0-3.7512032-.6943396-5.1038984-2.0837736-1.3738075-1.4166038-2.0607113-3.2369811-2.0607113-5.4603774 0-2.3373585.7336524-4.2113207 2.2002032-5.6218868 1.3444011-1.2898113 3.0002086-1.9335849 4.9644065-1.9335849zm22.2512326.3095095 8.4411497 10.4716981v-7.2732076c0-1.1954717-.1787005-1.9750943-.5345936-2.3366037-.2344973-.2324529-.7540107-.3849057-1.5585401-.4550944v-.4067924h5.1355669v.4067924c-.8331818.085283-1.3881337.2883019-1.6656097.6083019-.2774759.32-.4169679 1.0543396-.4169679 2.2007547v11.5215095h-.3732353l-9.6732032-12.0015095v8.52c0 1.1969812.1741765 1.9750944.5225294 2.3388679.2284653.234717.7374225.3954717 1.5276257.4792453v.4067925h-5.1355668v-.4067925c.9033048-.0913207 1.483893-.2966037 1.7402567-.6128302.2556096-.3169811.3837914-1.0528301.3837914-2.205283v-9.6437736l-.2985882-.3524528c-.3204546-.3773585-.5926524-.6098113-.8165936-.6981132-.2246952-.0898113-.560984-.1418868-1.0088663-.154717v-.4067924zm-37.61962942-.000151c1.85109625 0 3.26788235.3592453 4.25035832 1.0784906.9824759.7215094 1.4725829 1.6686792 1.4725829 2.8437736 0 1.4890566-.5443958 2.5675471-1.63318721 3.2384905-1.08879145.669434-2.45204278 1.0037736-4.08975401 1.0037736-.23374332 0-.5353476-.0045283-.9017968-.015849-.36644919-.0105661-.63864705-.0150944-.81659358-.0150944v3.9743397c0 .8226415.1266738 1.3396226.37926738 1.5516981.25259358.2143396.81659358.3509434 1.692.4143396v.4067924h-6.11804278v-.4067924c.83318182-.0762264 1.35269519-.2415094 1.55929412-.4935849s.30914438-.8286793.30914438-1.7290566v-9.4784906c0-.7615094-.11536363-1.2641509-.34684492-1.5064151-.23072727-.2430188-.73817647-.3962264-1.52159358-.4596226v-.4067925zm31.67531072.000151v.4067924c-.8904867.0422642-1.4665508.1796227-1.7304546.4113208-.2631497.2309434-.3943476.7501887-.3943476 1.554717v9.7350943c0 .8445283.1311979 1.3660377.3943476 1.5683019.2639038.2015094.8399679.3343396 1.7304546.3977358v.4067925h-6.4709198v-.4067925c.8904866-.0633962 1.4665508-.1962264 1.7304545-.3977358.2631498-.2022642.3943476-.7237736.3943476-1.5683019v-9.7350943c0-.8045283-.1311978-1.3237736-.3943476-1.554717-.2639037-.2316981-.8399679-.3690566-1.7304545-.4113208v-.4067924zm32.0584235-.0003019.1176257 3.7192453h-.5232835c-.2556096-1.1675472-.5813422-1.9283019-.9771978-2.2822642-.3943476-.3524528-1.2252674-.5290566-2.4920054-.5290566h-1.2177272v11.2c0 .8445283.1311978 1.3667925.3951016 1.5683019.2639037.2022641.8399679.3343396 1.7297005.3977358v.4067925h-6.3736524v-.4067925c.9244171-.0701886 1.5012353-.2218867 1.7289465-.4566037.2284653-.2332076.3415669-.8226415.3415669-1.7660378v-10.9433962h-1.2275294c-1.2101872 0-2.0335669.1758491-2.4716471.5245283-.4373262.349434-.7668289 1.1116981-.987754 2.2867925h-.5338396l.1281818-3.7192453zm-48.3600594.4802264c-1.3112246 0-2.4211283.5516981-3.3297112 1.6528302-.9085829 1.0996226-1.3632513 2.805283-1.3632513 5.1132075 0 2.3011321.4531604 4.0022642 1.3579732 5.1033963.9048129 1.0996226 2.0169786 1.6513207 3.3349893 1.6513207 1.2901123 0 2.392476-.5366038 3.308599-1.6083019.915369-1.0732075 1.3738075-2.7879245 1.3738075-5.1464151 0-2.3864151-.4637166-4.1109434-1.3903958-5.1720754-.9259251-1.0611321-2.0237647-1.5939623-3.2920107-1.5939623zm-16.10958926.332c-.44863637 0-.72460428.0445283-.82790375.1343396-.10329946.0883019-.15457219.2860378-.15457219.5924528v5.7071699c.39208556.0354717.64769519.0566037.76909091.0633962.12064171.0075472.23826738.010566.35136898.010566 1.00434225 0 1.79379145-.1418868 2.37136364-.4271698 1.04581283-.5192453 1.56909626-1.4920755 1.56909626-2.9177358 0-1.3381132-.57681818-2.2581132-1.72970054-2.7562265-.61904278-.2709433-1.40170588-.4067924-2.34874331-.4067924zm54.65310806-65.8829434v5.2490566h-1.1310161v-4.11698113h-57.20679143v57.26113203h57.20679143v-39.1154717h1.1310161v40.2475472h-59.46882357v-59.525283zm-21.9274605 6.87056604c2.7151925 0 4.9169038 2.20528302 4.9169038 4.92150946 0 2.7184905-2.2017113 4.9207547-4.9169038 4.9207547-2.7144385 0-4.9161497-2.2022642-4.9161497-4.9207547 0-2.71622644 2.2017112-4.92150946 4.9161497-4.92150946zm13.9786797 0c2.7144385 0 4.9161497 2.20528302 4.9161497 4.92150946 0 2.7184905-2.2017112 4.9207547-4.9161497 4.9207547-2.7151925 0-4.9169037-2.2022642-4.9169037-4.9207547 0-2.71622644 2.2017112-4.92150946 4.9169037-4.92150946zm13.9779257 0c2.7151925 0 4.9169037 2.20528302 4.9169037 4.92150946 0 2.7184905-2.2017112 4.9207547-4.9169037 4.9207547-2.7144385 0-4.9161498-2.2022642-4.9161498-4.9207547 0-2.71622644 2.2017113-4.92150946 4.9161498-4.92150946zm13.9789813 0c2.7129304 0 4.9161497 2.20528302 4.9161497 4.92150946 0 2.7184905-2.2032193 4.9207547-4.9161497 4.9207547-2.7159466 0-4.9169038-2.2022642-4.9169038-4.9207547 0-2.71622644 2.2009572-4.92150946 4.9169038-4.92150946zm13.9771716 0c2.7144385 0 4.9169038 2.20528302 4.9169038 4.92150946 0 2.7184905-2.2024653 4.9207547-4.9169038 4.9207547s-4.9161497-2.2022642-4.9161497-4.9207547c0-2.71622644 2.2017112-4.92150946 4.9161497-4.92150946zm13.9786798 0c2.714438 0 4.91615 2.20528302 4.91615 4.92150946 0 2.7184905-2.201712 4.9207547-4.91615 4.9207547-2.714439 0-4.916904-2.2022642-4.916904-4.9207547 0-2.71622644 2.202465-4.92150946 4.916904-4.92150946zm13.977172 0c2.715946 0 4.916903 2.20528302 4.916903 4.92150946 0 2.7184905-2.200957 4.9207547-4.916903 4.9207547-2.712931 0-4.91615-2.2022642-4.91615-4.9207547 0-2.71622644 2.203219-4.92150946 4.91615-4.92150946zm13.978679 0c2.715947 0 4.91615 2.20528302 4.91615 4.92150946 0 2.7184905-2.200203 4.9207547-4.91615 4.9207547-2.714438 0-4.916149-2.2022642-4.916149-4.9207547 0-2.71622644 2.201711-4.92150946 4.916149-4.92150946z" fill="#fff" fill-rule="evenodd"/></svg>