<?xml version="1.0" encoding="UTF-8"?>
<!DOCTYPE svg PUBLIC "-//W3C//DTD SVG 1.1//EN" "http://www.w3.org/Graphics/SVG/1.1/DTD/svg11.dtd">
<!-- Creator: CorelDRAW -->
<svg xmlns="http://www.w3.org/2000/svg" xml:space="preserve" width="103.808mm" height="40.1806mm" version="1.1" style="shape-rendering:geometricPrecision; text-rendering:geometricPrecision; image-rendering:optimizeQuality; fill-rule:evenodd; clip-rule:evenodd"
viewBox="0 0 5127.73 1984.77"
 xmlns:xlink="http://www.w3.org/1999/xlink"
 xmlns:xodm="http://www.corel.com/coreldraw/odm/2003">
 <defs>
  <style type="text/css">
   <![CDATA[
    .fil2 {fill:#EF7F1A}
    .fil1 {fill:#D4721B}
    .fil4 {fill:#009CD9}
    .fil3 {fill:#177DB2}
    .fil0 {fill:#22222F}
    .fil5 {fill:#FEFEFE;fill-rule:nonzero}
   ]]>
  </style>
 </defs>
 <g id="Laag_x0020_1">
  <metadata id="CorelCorpID_0Corel-Layer"/>
  <rect class="fil0" x="-0" y="0" width="5127.73" height="1984.77"/>
  <polygon class="fil1" points="1339.3,1082 1551.67,1082.01 1648.7,904.98 1548.55,724.65 "/>
  <polygon class="fil2" points="1652.33,1262.03 1551.67,1082.01 1339.3,1082 1542.69,1441.29 1954.76,1441.27 2278.17,904.98 2066.71,904.98 1848.81,1262.28 "/>
  <polygon class="fil2" points="1648.7,904.97 1752.27,905.23 1860.74,724.8 1548.55,724.66 "/>
  <polygon class="fil3" points="2638.11,904.43 2425.74,904.42 2328.71,1081.45 2428.86,1261.78 "/>
  <polygon class="fil4" points="2325.08,724.41 2425.74,904.43 2638.11,904.44 2434.73,545.15 2018.17,545.17 1694.19,1082.3 1910.7,1081.46 2126.64,724.3 "/>
  <polygon class="fil4" points="2328.72,1081.46 2220.23,1081.41 2111.76,1261.78 2428.86,1261.78 "/>
  <path class="fil5" d="M507.56 1223.34l0 -459.33 176.34 0c31.65,0 59.7,5.55 84.16,16.65 24.46,11.09 43.67,27.54 57.65,49.32 13.97,21.78 20.96,48.71 20.96,80.77 0,31.24 -7.09,57.75 -21.27,79.54 -14.18,21.78 -33.5,38.33 -57.96,49.63 -24.46,11.3 -52.31,16.95 -83.54,16.95l-80.77 0 0 166.47 -95.57 0zm95.57 -249.7l81.39 0c13.56,0 25.28,-2.67 35.14,-8.02 9.86,-5.34 17.58,-12.74 23.12,-22.19 5.55,-9.45 8.32,-20.35 8.32,-32.68 0,-12.74 -2.78,-23.84 -8.32,-33.29 -5.55,-9.45 -13.26,-16.85 -23.12,-22.19 -9.86,-5.34 -21.58,-8.02 -35.14,-8.02l-81.39 0 0 126.4zm304.58 249.7l0 -459.33 175.72 0c31.65,0 59.71,5.55 84.16,16.65 24.46,11.09 43.67,27.54 57.65,49.32 13.97,21.78 20.96,48.71 20.96,80.77 0,31.24 -7.19,57.85 -21.58,79.84 -14.38,21.99 -33.7,38.53 -57.95,49.63l104.81 183.12 -107.28 0 -113.44 -202.85 61.66 36.38 -109.13 0 0 166.47 -95.57 0zm95.57 -249.7l80.77 0c13.56,0 25.28,-2.67 35.15,-8.02 9.86,-5.34 17.57,-12.74 23.12,-22.19 5.55,-9.45 8.32,-20.35 8.32,-32.68 0,-12.74 -2.77,-23.84 -8.32,-33.29 -5.55,-9.45 -13.25,-16.85 -23.12,-22.19 -9.87,-5.34 -21.58,-8.02 -35.15,-8.02l-80.77 0 0 126.4z"/>
  <path class="fil5" d="M2734.6 1223.55l0 -459.33 314.44 0 0 83.23 -218.88 0 0 116.53 188.05 0 0 83.23 -188.05 0 0 176.34 -95.57 0zm361.92 0l0 -459.33 95.57 0 0 459.33 -95.57 0zm176.95 0l0 -459.33 73.37 0 246.63 324.92 -39.46 9.25 0 -334.17 95.57 0 0 459.33 -73.99 0 -242.31 -327.39 35.76 -9.25 0 336.64 -95.57 0zm457.48 0l0 -459.33 95.57 0 0 459.33 -95.57 0zm259.57 0l0 -376.1 -116.53 0 0 -83.23 326.78 0 0 83.23 -114.68 0 0 376.1 -95.56 0zm376.72 0l0 -200.38 -152.91 -258.95 109.13 0 110.98 194.83 -38.85 0 110.37 -194.83 109.13 0 -152.29 258.33 0 201 -95.57 0z"/>
 </g>
</svg>
